<svg id="Layer_1" data-name="Layer 1" xmlns="http://www.w3.org/2000/svg" width="1920" height="1080" viewBox="0 0 1920 1080"><defs><style>.cls-1{fill:#4c6483;}.cls-2{fill:#788ba2;}.cls-3{fill:#2d3c49;}.cls-4{fill:#a6b1c1;}.cls-5{fill:#ff7945;}.cls-6{fill:#dbb2a7;}.cls-7{fill:#ffd3c5;}.cls-8{fill:#89a052;}.cls-9{fill:#020000;}.cls-10{fill:#b90f00;}.cls-11{fill:#a01710;}.cls-12{fill:#acce76;}.cls-13{fill:#669fdd;}.cls-14{fill:#89686b;}.cls-15{fill:#b71313;}.cls-16{fill:#bcb52a;}.cls-17{fill:#fc8900;}.cls-18{fill:#9863c6;}.cls-19{fill:#97b262;}.cls-20{fill:#4c98d6;}.cls-21{fill:#ceb984;}.cls-22{fill:#020202;}.cls-23{fill:#aa1729;}.cls-24{fill:#f9f9f9;}.cls-25{fill:#2b7cb2;}.cls-26{fill:#634b4c;}.cls-27{fill:#5f4343;}.cls-28{fill:#6b6a6a;}</style></defs><title>Artboard 1</title><rect class="cls-1" x="6.01" y="5.49" width="1909" height="1069"/><path class="cls-2" d="M1909.51,11V1069H11.51V11h1898m11-11H.51V1080h1920Z"/><rect x="1019.84" y="806.6" width="334.4" height="135.27" rx="38.09"/><path class="cls-3" d="M1316.15,812.1a32.63,32.63,0,0,1,32.59,32.59v59.08a32.64,32.64,0,0,1-32.59,32.6H1057.93a32.64,32.64,0,0,1-32.59-32.6V844.69a32.63,32.63,0,0,1,32.59-32.59h258.22m0-11H1057.93a43.6,43.6,0,0,0-43.59,43.59h0v59.08a43.6,43.6,0,0,0,43.59,43.6h258.22a43.6,43.6,0,0,0,43.59-43.59h0V844.69a43.58,43.58,0,0,0-43.57-43.59Z"/><rect class="cls-1" x="1026.26" y="812.59" width="320.71" height="123.63" rx="38.09"/><path class="cls-2" d="M1308.88,818.09a32.63,32.63,0,0,1,32.59,32.59v47.45a32.63,32.63,0,0,1-32.59,32.59H1064.35a32.63,32.63,0,0,1-32.59-32.59V850.68a32.63,32.63,0,0,1,32.59-32.59h244.53m0-11H1064.35a43.61,43.61,0,0,0-43.59,43.59v47.45a43.6,43.6,0,0,0,43.59,43.59h244.53a43.6,43.6,0,0,0,43.59-43.59V850.68A43.61,43.61,0,0,0,1308.88,807.09Z"/><rect x="565.76" y="806.59" width="334.4" height="135.27" rx="38.09"/><path class="cls-3" d="M862.07,812.09a32.63,32.63,0,0,1,32.59,32.59v59.09a32.63,32.63,0,0,1-32.59,32.59H603.85a32.63,32.63,0,0,1-32.59-32.59V844.68a32.63,32.63,0,0,1,32.59-32.59H862.07m0-11H603.85a43.6,43.6,0,0,0-43.59,43.59h0v59.09a43.6,43.6,0,0,0,43.59,43.59H862.07a43.61,43.61,0,0,0,43.59-43.59V844.68A43.61,43.61,0,0,0,862.07,801.09Z"/><rect class="cls-1" x="572.17" y="812.59" width="320.71" height="123.63" rx="38.09"/><path class="cls-2" d="M854.79,818.09a32.63,32.63,0,0,1,32.59,32.59v47.45a32.63,32.63,0,0,1-32.59,32.59H610.26a32.63,32.63,0,0,1-32.59-32.59V850.68a32.63,32.63,0,0,1,32.59-32.59H854.79m0-11H610.26a43.6,43.6,0,0,0-43.59,43.59h0v47.45a43.61,43.61,0,0,0,43.59,43.59H854.79a43.6,43.6,0,0,0,43.59-43.59h0V850.68a43.58,43.58,0,0,0-43.57-43.59Z"/><path class="cls-2" d="M397.63,238.31v67.08q0,21.93-10,37.29T363.7,358a24,24,0,0,1-13-3.86,36.82,36.82,0,0,1-10.95-11.38,68.39,68.39,0,0,1-7.55-15.64q-2.7-8.14-2.7-21.76V238.31q-4.74,0-7-3.35a14.87,14.87,0,0,1-2.26-8.54,14.6,14.6,0,0,1,2.26-8.55q2.26-3.23,7.74-3.23l19.63-.12q5.4,0,7.7,3.29a17.23,17.23,0,0,1,0,17.21c-1.53,2.19-4.09,3.28-7.7,3.29h-5.4v69.16A32.43,32.43,0,0,0,350,326.23q5.58,8.13,13.47,8.14a14.94,14.94,0,0,0,9.85-3.93q4.59-3.93,7.52-11.43a32.33,32.33,0,0,0,1.82-11.54V238.31h-5.4q-5.4,0-7.7-3.29a17.23,17.23,0,0,1,0-17.21c1.53-2.19,4.1-3.28,7.7-3.29l19.63.12q5.4,0,7.7,3.23a14.52,14.52,0,0,1,2.3,8.55,15,15,0,0,1-2.26,8.54Q402.38,238.31,397.63,238.31Z"/><path class="cls-2" d="M539.85,353.76l-25.91-80.35a7.9,7.9,0,0,1-5.55-3.93,15.35,15.35,0,0,1-1.89-7.85,14.67,14.67,0,0,1,2.3-8.6c1.53-2.2,4.09-3.29,7.69-3.29h13.65c3.6,0,6.17,1.09,7.7,3.29a17,17,0,0,1,0,17.09c-1.53,2.19-4,3.28-7.26,3.29l17.66,54.38,17.51-54.38q-4.82,0-7.11-3.29a14.71,14.71,0,0,1-2.3-8.61,14.45,14.45,0,0,1,2.3-8.48c1.53-2.2,4.1-3.29,7.7-3.29h14.08c3.55,0,6.1,1.09,7.63,3.29a14.67,14.67,0,0,1,2.3,8.6,15.33,15.33,0,0,1-2,8,7.52,7.52,0,0,1-5.84,3.76L548.21,380.3c3.75,0,6.2.57,7.37,1.73q3.51,3.57,3.5,10.16a14.51,14.51,0,0,1-2.29,8.48c-1.54,2.2-4.1,3.3-7.7,3.3h-32.6q-5.4,0-7.69-3.3a14.45,14.45,0,0,1-2.3-8.48,14.67,14.67,0,0,1,2.3-8.6c1.53-2.2,4.09-3.29,7.69-3.29h14.89Z"/><path class="cls-2" d="M628.29,315.2v39.37H610.77c-3.6,0-6.16-1.1-7.7-3.29a14.76,14.76,0,0,1-2.29-8.6,14.36,14.36,0,0,1,2.33-8.49q2.34-3.29,7.66-3.29h2.56V228.49h-2.56c-3.6,0-6.16-1.09-7.7-3.29a14.76,14.76,0,0,1-2.29-8.6,14.51,14.51,0,0,1,2.29-8.48c1.54-2.2,4.1-3.29,7.7-3.29h17.52v79.78L640,269.71a24.92,24.92,0,0,1-1.82-8.08,14.9,14.9,0,0,1,2.26-8.6c1.51-2.2,4.06-3.29,7.67-3.29h17.07c3.6,0,6.17,1.09,7.7,3.29a17,17,0,0,1,0,17.09c-1.53,2.19-4.1,3.28-7.7,3.29H661l-18.17,23.32,24.45,34.17h4.38c3.6,0,6.16,1.1,7.7,3.29a14.75,14.75,0,0,1,2.3,8.6,14.48,14.48,0,0,1-2.3,8.49c-1.54,2.19-4.1,3.29-7.7,3.29H654.41c-3.6,0-6.16-1.1-7.7-3.29a14.76,14.76,0,0,1-2.29-8.6,17.82,17.82,0,0,1,2.48-8.89l-15.84-22.17Z"/><path class="cls-2" d="M720.67,315.2v39.37H703.15q-5.4,0-7.69-3.29a14.67,14.67,0,0,1-2.3-8.6,14.36,14.36,0,0,1,2.33-8.49q2.34-3.29,7.66-3.29h2.56V228.49h-2.56c-3.6,0-6.16-1.09-7.69-3.29a14.67,14.67,0,0,1-2.3-8.6,14.45,14.45,0,0,1,2.3-8.48c1.53-2.2,4.09-3.29,7.69-3.29h17.52v79.78l11.68-14.9a24.67,24.67,0,0,1-1.83-8.08,14.9,14.9,0,0,1,2.26-8.6c1.51-2.2,4.07-3.29,7.67-3.29h17.07c3.6,0,6.17,1.09,7.7,3.29a14.67,14.67,0,0,1,2.3,8.6,14.48,14.48,0,0,1-2.3,8.49c-1.53,2.19-4.09,3.28-7.7,3.29h-4.16l-18.17,23.32,24.45,34.17H764q5.4,0,7.7,3.29a14.75,14.75,0,0,1,2.3,8.6,14.48,14.48,0,0,1-2.3,8.49c-1.53,2.19-4.09,3.29-7.7,3.29H746.8c-3.61,0-6.17-1.1-7.7-3.29a14.67,14.67,0,0,1-2.3-8.6,17.82,17.82,0,0,1,2.48-8.89l-15.84-22.17Z"/><path class="cls-2" d="M925.21,204.83V330.9h17.95q5.4,0,7.7,3.29a14.75,14.75,0,0,1,2.3,8.6,14.48,14.48,0,0,1-2.3,8.49c-1.53,2.19-4.09,3.29-7.7,3.29H892.3c-3.61,0-6.17-1.1-7.7-3.29a14.67,14.67,0,0,1-2.3-8.6,14.48,14.48,0,0,1,2.3-8.49c1.53-2.19,4.09-3.29,7.7-3.29h18V228.49h-12c-3.55,0-6.11-1.09-7.67-3.29a16.89,16.89,0,0,1,0-17.08c1.53-2.2,4.1-3.29,7.7-3.29Z"/><path class="cls-2" d="M1017.52,249.74V330.9h18q5.4,0,7.7,3.29a14.75,14.75,0,0,1,2.3,8.6,14.48,14.48,0,0,1-2.3,8.49q-2.29,3.29-7.7,3.29H984.6c-3.6,0-6.16-1.1-7.7-3.29a14.76,14.76,0,0,1-2.29-8.6,14.56,14.56,0,0,1,2.29-8.49c1.54-2.19,4.1-3.29,7.7-3.29h18V273.41h-12c-3.56,0-6.11-1.1-7.67-3.29a16.93,16.93,0,0,1,0-17.09c1.53-2.2,4.09-3.29,7.7-3.29Zm-2-44.91v25h-17.8v-25Z"/><path class="cls-2" d="M1119,256.78v-7h17.51c3.6,0,6.17,1.09,7.7,3.29a14.67,14.67,0,0,1,2.3,8.6,14.48,14.48,0,0,1-2.3,8.49c-1.53,2.19-4.09,3.28-7.7,3.29H1134v86.13a64.84,64.84,0,0,1-3.32,21.76,41.7,41.7,0,0,1-10.18,16Q1113.61,404,1105,404h-17c-3.61,0-6.17-1.1-7.7-3.3a14.45,14.45,0,0,1-2.3-8.48,14.67,14.67,0,0,1,2.3-8.6c1.53-2.2,4.09-3.29,7.7-3.29h16.49a12,12,0,0,0,10.65-5.89q3.79-5.89,3.8-14.89V348a37.52,37.52,0,0,1-10.11,7.62,23.69,23.69,0,0,1-10.54,2.54q-15.26,0-25.55-16.11t-10.29-39.77q0-23.79,10.29-39.89t25.55-16.11a23.81,23.81,0,0,1,10.83,2.6A33.18,33.18,0,0,1,1119,256.78Zm-.07,45.37q0-13-6.1-22.62t-14.63-9.59q-8.54,0-14.63,9.59t-6.1,22.62q0,13.17,6.1,22.69t14.63,9.53q8.54,0,14.63-9.53t6.05-22.69Z"/><path class="cls-4" d="M768.17,479.15v26.2h5.4q5.4,0,7.7,3.29a14.8,14.8,0,0,1,2.3,8.61,14.45,14.45,0,0,1-2.3,8.48c-1.53,2.2-4.1,3.29-7.7,3.29h-22.7c-3.6,0-6.16-1.09-7.7-3.29a14.67,14.67,0,0,1-2.3-8.6,14.33,14.33,0,0,1,2.34-8.49c1.56-2.19,4.11-3.28,7.66-3.29h2.34V412.76h-2.34c-3.6,0-6.16-1.1-7.7-3.29a17.21,17.21,0,0,1,0-17.2c1.54-2.2,4.1-3.29,7.7-3.29l22.7.11q5.4,0,7.7,3.23a14.52,14.52,0,0,1,2.3,8.55,14.67,14.67,0,0,1-2.3,8.6c-1.53,2.19-4.09,3.28-7.7,3.29h-5.4v35.1l26.56-36.14a17.23,17.23,0,0,1-3.21-5,16.26,16.26,0,0,1-.87-5.66,15.18,15.18,0,0,1,2.3-8.78c1.53-2.23,4.09-3.35,7.69-3.34l15.26.11c3.6,0,6.16,1.08,7.7,3.23a14.44,14.44,0,0,1,2.29,8.55,14.74,14.74,0,0,1-2.29,8.54c-1.54,2.23-3.93,3.35-7.19,3.35L789.55,449.9q7.51,6.81,14.12,20.78t11.72,34.63h4c3.55,0,6.1,1.1,7.63,3.29a17.2,17.2,0,0,1,0,17.09c-1.51,2.2-4.06,3.29-7.66,3.29H805.83q-4.68-17.65-10.22-33.71-4.53-13-8.58-19a33.39,33.39,0,0,0-9.67-9.53Z"/><path class="cls-4" d="M922.73,488.61H884.49q2,11.67,5,16.11t6.28,4.44q2.47,0,8.1-3.11,9.2-5.08,11.9-5.08c2,0,3.66,1.11,5,3.34a17.48,17.48,0,0,1,2,9,13.92,13.92,0,0,1-2,7.68q-2,3.18-11.46,7.5t-13.72,4.33q-6.5,0-13.72-7.73-2.11,4.15-5.55,4.15c-2.23,0-4.11-1.38-5.62-4.15a31.2,31.2,0,0,1-7.73,5.77,17,17,0,0,1-7.81,2q-6.78,0-13.32-5.54t-10.11-15.24A57.6,57.6,0,0,1,828.15,492a28.63,28.63,0,0,1,3-13.51,32.12,32.12,0,0,1,13-13.16q8.61-4.84,15.33-4.85a39.21,39.21,0,0,1,9.26,1.39v-5.08a15.61,15.61,0,0,0-2.11-8.6c-1.41-2.2-3.17-3.29-5.26-3.29s-5.71,1.27-11.31,3.81q-4.38,2.07-5.91,2.07c-2,0-3.62-1.15-5-3.46a16.16,16.16,0,0,1-2.11-8.54,15,15,0,0,1,2.15-8.49c1.44-2.11,4.85-4.16,10.25-6.12s9.39-2.94,12-2.94a15,15,0,0,1,9.42,3.4A33.33,33.33,0,0,1,879,434.85q7.89-13.62,17-13.62a13.18,13.18,0,0,1,8.83,3.46A39.78,39.78,0,0,1,915,438.85a97.88,97.88,0,0,1,6.31,20.55,91.12,91.12,0,0,1,1.46,17.21Zm-54-2.54a22.81,22.81,0,0,0-8.75-2A21.57,21.57,0,0,0,847.71,488c-2.92,1.92-4.38,4.35-4.38,7.27a15.68,15.68,0,0,0,3.39,9.18q3.39,4.68,7.92,4.67c1.94,0,4.1-.92,6.46-2.77a42.64,42.64,0,0,0,7.62-8.31Zm37.66-21.13q-1.75-10.15-5-15.12c-2.19-3.31-4.12-5-5.77-5s-3.49,1.65-5.66,5-3.85,8.35-5.07,15.12Z"/><path class="cls-4" d="M965.41,424.19V439q9.42-10.74,14.85-14.32t10.18-3.58q7.3,0,14.16,8.55,4.67,5.78,4.67,11.77a15.76,15.76,0,0,1-2.22,8.6c-1.49,2.35-3.28,3.52-5.37,3.53-1.85,0-3.79-1.47-5.84-4.39s-3.86-4.39-5.47-4.39q-3.14,0-9.38,6.24a180.81,180.81,0,0,0-15.58,18.7v35.67h21.31q5.4,0,7.7,3.29a14.78,14.78,0,0,1,2.3,8.61,14.45,14.45,0,0,1-2.3,8.48c-1.53,2.2-4.1,3.29-7.7,3.29H941.55c-3.6,0-6.17-1.09-7.7-3.29a17,17,0,0,1,0-17.09c1.53-2.19,4.09-3.28,7.7-3.29h8.9V447.86h-5.4q-5.4,0-7.7-3.29a14.75,14.75,0,0,1-2.3-8.6,14.48,14.48,0,0,1,2.3-8.49c1.53-2.19,4.09-3.28,7.7-3.29Z"/><path class="cls-4" d="M1068.37,379.28V505.35h18c3.6,0,6.16,1.1,7.7,3.29a14.79,14.79,0,0,1,2.29,8.61,14.51,14.51,0,0,1-2.29,8.48c-1.54,2.2-4.1,3.29-7.7,3.29H1035.5c-3.6,0-6.17-1.09-7.7-3.29a17,17,0,0,1,0-17.09c1.53-2.19,4.09-3.28,7.7-3.29h18V403h-12q-5.32,0-7.66-3.29a16.91,16.91,0,0,1,0-17.09c1.54-2.2,4.1-3.29,7.7-3.29Z"/><path class="cls-4" d="M1160.68,424.19v81.16h18q5.4,0,7.69,3.29a14.71,14.71,0,0,1,2.3,8.61,14.45,14.45,0,0,1-2.3,8.48c-1.53,2.2-4.09,3.29-7.69,3.29h-50.87c-3.6,0-6.17-1.09-7.7-3.29a17,17,0,0,1,0-17.09c1.53-2.19,4.09-3.28,7.7-3.29h18V447.86h-12c-3.55,0-6.11-1.1-7.66-3.29a16.91,16.91,0,0,1,0-17.09c1.53-2.19,4.1-3.28,7.7-3.29Zm-2-44.91v25.05h-17.81V379.28Z"/><path class="cls-4" d="M1262.11,431.23v-7h17.52q5.4,0,7.7,3.29a14.67,14.67,0,0,1,2.3,8.6,14.48,14.48,0,0,1-2.3,8.49q-2.3,3.28-7.7,3.29h-2.55V534a64.6,64.6,0,0,1-3.33,21.76,41.43,41.43,0,0,1-10.18,16q-6.85,6.69-15.47,6.7h-16.93q-5.4,0-7.7-3.29a17,17,0,0,1,0-17.09c1.53-2.19,4.09-3.28,7.7-3.29h16.49a12,12,0,0,0,10.66-5.89q3.79-5.89,3.79-14.89V522.44a37.63,37.63,0,0,1-10.1,7.62,23.7,23.7,0,0,1-10.55,2.54q-15.26,0-25.54-16.1t-10.29-39.78q0-23.78,10.29-39.89t25.54-16.1a23.75,23.75,0,0,1,10.84,2.59A33.37,33.37,0,0,1,1262.11,431.23Zm-.07,45.38q0-13-6.09-22.63t-14.64-9.59q-8.54,0-14.63,9.59t-6.09,22.63q0,13.15,6.09,22.68t14.63,9.53q8.55,0,14.64-9.53t6-22.68Z"/><path class="cls-4" d="M1322.6,379.28v50.45a34.75,34.75,0,0,1,9.45-6.52,23.58,23.58,0,0,1,9.67-2.14,23.82,23.82,0,0,1,13.8,4.16q6,4.15,10,13.1t4,22.57v44.45q5.68,0,7.44,1.74,3.51,3.57,3.51,10.16a14.61,14.61,0,0,1-2.27,8.48c-1.51,2.2-4.06,3.29-7.66,3.29h-17.08c-3.55,0-6.09-1.09-7.62-3.29a14.67,14.67,0,0,1-2.3-8.6q0-6.46,3.5-10,1.83-1.85,7.44-1.74V462.52q0-9.12-2.62-12.81-3.43-5-10.15-5a13.64,13.64,0,0,0-8.79,3.06q-3.83,3.06-10.33,13.22v44.33c3.85,0,6.34.58,7.45,1.74q3.57,3.57,3.57,10.16a14.45,14.45,0,0,1-2.3,8.48c-1.53,2.2-4.1,3.29-7.69,3.29h-17c-3.6,0-6.17-1.09-7.7-3.29a14.67,14.67,0,0,1-2.3-8.6q0-6.47,3.58-10,1.75-1.85,7.44-1.74V403h-2.55q-5.4,0-7.7-3.29a14.71,14.71,0,0,1-2.3-8.61,14.45,14.45,0,0,1,2.3-8.48c1.53-2.2,4.1-3.29,7.7-3.29Z"/><path class="cls-4" d="M1468,488.61h-61.38a30.29,30.29,0,0,0,8.28,14.9q6,5.65,16.1,5.65,8.31,0,22.11-5.65c3.79-1.54,6.41-2.31,7.88-2.31,2,0,3.67,1.11,5,3.35a16,16,0,0,1,2,8.42,13.63,13.63,0,0,1-2.19,7.85q-2.92,4.27-14.23,8.14a67.23,67.23,0,0,1-21.75,3.87q-18,0-28.72-16.05t-10.76-39.48q0-24.94,11.64-40.58t26.82-15.65a29.66,29.66,0,0,1,16.75,5.08,38,38,0,0,1,11.35,11,81.22,81.22,0,0,1,8.68,21.13,79.45,79.45,0,0,1,2.34,20.32Zm-16.57-23.67q-3.43-10.15-9-15.18a19.79,19.79,0,0,0-26.34,0q-5.55,5-9,15.18Z"/><path class="cls-4" d="M1557.14,379.28V505.35h2.55c3.55,0,6.1,1.1,7.67,3.29a16.91,16.91,0,0,1,0,17.09c-1.53,2.2-4.1,3.29-7.7,3.29h-17.51v-5.77a38.39,38.39,0,0,1-10.69,7.16,28.81,28.81,0,0,1-11.57,2.42q-16.86,0-27.15-15.41T1482.48,479q0-24,10.8-41t26.35-17a25.34,25.34,0,0,1,11.45,2.83,42,42,0,0,1,11.1,8.49V403h-2.56c-3.6,0-6.16-1.1-7.7-3.29a17,17,0,0,1,0-17.09c1.54-2.2,4.1-3.29,7.7-3.29Zm-15,100.44q0-14.66-6.5-24.82t-15.91-10.16q-9.35,0-15.83,10.16t-6.5,24.48q0,13,5.84,21.41t16.49,8.37q10.59,0,16.5-8.37t6-21.07Z"/><path class="cls-4" d="M1093.06,879.67v9h2.58a5.49,5.49,0,0,1,3.68,1,3.58,3.58,0,0,1,0,5.16,5.36,5.36,0,0,1-3.68,1h-10.85a5.36,5.36,0,0,1-3.68-1,3.36,3.36,0,0,1-1.1-2.6,3.25,3.25,0,0,1,1.12-2.56,5.43,5.43,0,0,1,3.66-1h1.12v-28h-1.12a5.49,5.49,0,0,1-3.68-1,3.62,3.62,0,0,1-.08-5.12l.08-.08a5.49,5.49,0,0,1,3.68-1H1101q7.57,0,11.74,3.75a11.79,11.79,0,0,1,4.17,9.13,10.23,10.23,0,0,1-2,6.08,17,17,0,0,1-5.9,4.87,45.84,45.84,0,0,1,4.85,5.1q1.61,2,4.33,6.21a7.6,7.6,0,0,1,3.59.55,3.48,3.48,0,0,1,1.57,3,3.31,3.31,0,0,1-1.08,2.56,5.35,5.35,0,0,1-3.67,1h-4.08q-8.68-13.44-14.41-16.16Zm0-7.15h5.58a15.46,15.46,0,0,0,5.55-.94,10.62,10.62,0,0,0,4.41-2.65,4.36,4.36,0,0,0,1.14-2.76,4.85,4.85,0,0,0-2.17-3.75q-2.16-1.73-6.31-1.73h-8.2Z"/><path class="cls-4" d="M1159.8,864.15v24.53a4.72,4.72,0,0,1,3.35,1,3.35,3.35,0,0,1,1.08,2.58,3.29,3.29,0,0,1-1.1,2.56,5.36,5.36,0,0,1-3.68,1h-6.8v-1.64a34.94,34.94,0,0,1-5.86,2.09,21.62,21.62,0,0,1-5.31.7,12.13,12.13,0,0,1-6.1-1.48,10.88,10.88,0,0,1-4.09-4.1,9.3,9.3,0,0,1-1.08-4.71V871.3H1129a5.49,5.49,0,0,1-3.68-1,3.36,3.36,0,0,1-1.1-2.6,3.3,3.3,0,0,1,1.1-2.57,5.49,5.49,0,0,1,3.68-1h8.38v21.28a4.51,4.51,0,0,0,1.09,3.33,4.69,4.69,0,0,0,3.37,1.07,14.55,14.55,0,0,0,4.66-.86,33.17,33.17,0,0,0,6.16-3.09V871.3h-2.59a5.49,5.49,0,0,1-3.68-1,3.61,3.61,0,0,1,0-5.17,5.49,5.49,0,0,1,3.68-1Z"/><path class="cls-4" d="M1192.35,850.58v38.1h8.58a5.49,5.49,0,0,1,3.68,1,3.36,3.36,0,0,1,1.1,2.6,3.29,3.29,0,0,1-1.1,2.56,5.36,5.36,0,0,1-3.68,1h-24.32a5.36,5.36,0,0,1-3.68-1,3.36,3.36,0,0,1-1.1-2.6,3.29,3.29,0,0,1,1.1-2.56,5.49,5.49,0,0,1,3.68-1h8.58V857.73h-5.75a5.46,5.46,0,0,1-3.67-1,3.56,3.56,0,0,1-.13-5,1.59,1.59,0,0,1,.13-.13,5.43,5.43,0,0,1,3.68-1Z"/><path class="cls-4" d="M1250.88,883.62h-29.34a9.23,9.23,0,0,0,4,4.5,15,15,0,0,0,7.7,1.71,44.52,44.52,0,0,0,10.57-1.71,17.81,17.81,0,0,1,3.76-.7,3.22,3.22,0,0,1,2.41,1,3.56,3.56,0,0,1,1,2.55,3.1,3.1,0,0,1-1,2.37c-.93.86-3.19,1.68-6.8,2.46a49.19,49.19,0,0,1-10.4,1.17q-8.58,0-13.73-4.85a15.76,15.76,0,0,1-5.14-11.93,15.34,15.34,0,0,1,5.56-12.27,19.21,19.21,0,0,1,12.82-4.72,20.52,20.52,0,0,1,8,1.53,17.15,17.15,0,0,1,5.43,3.32,21.2,21.2,0,0,1,4.15,6.38,15.91,15.91,0,0,1,1.11,6.14Zm-7.92-7.16a11.08,11.08,0,0,0-4.29-4.58,13.78,13.78,0,0,0-12.59,0,11.5,11.5,0,0,0-4.33,4.58Z"/><path class="cls-4" d="M1284.83,872.52a14.51,14.51,0,0,0-3.67-1.62,15,15,0,0,0-4-.54,13.53,13.53,0,0,0-6.59,1.36q-1.08.6-1.08,1.29c0,.54.48,1.06,1.46,1.57a19.84,19.84,0,0,0,5,1.08,58.6,58.6,0,0,1,9.91,2,12.16,12.16,0,0,1,5.65,3.83,8.61,8.61,0,0,1,2,5.38,7.79,7.79,0,0,1-3.38,6.42q-4.86,3.74-12.6,3.73a29.07,29.07,0,0,1-5.74-.54,20.57,20.57,0,0,1-4.83-1.59,4.06,4.06,0,0,1-1.12.7,3.2,3.2,0,0,1-1.22.24,3.41,3.41,0,0,1-2.67-1.1,5.49,5.49,0,0,1-1-3.68v-2.4a5.49,5.49,0,0,1,1-3.68,3.33,3.33,0,0,1,2.6-1.1,3.25,3.25,0,0,1,2.16.71,4.79,4.79,0,0,1,1.37,2.46,10.75,10.75,0,0,0,3.94,2.11,17.62,17.62,0,0,0,5.3.72,15.63,15.63,0,0,0,7.64-1.54c.86-.51,1.29-1,1.29-1.6,0-.93-.61-1.7-1.85-2.31s-3.78-1.11-7.64-1.53q-8.61-.92-11.51-3.49a8,8,0,0,1-2.9-6.28,7.76,7.76,0,0,1,3.25-6.38q4.39-3.5,11.51-3.49a23.08,23.08,0,0,1,4.76.47,18.93,18.93,0,0,1,4.38,1.45,6.45,6.45,0,0,1,1.24-.74,2.74,2.74,0,0,1,1.06-.24,3.12,3.12,0,0,1,2.45,1.1,5.54,5.54,0,0,1,1,3.68v1.74a6.21,6.21,0,0,1-.55,3.18,3.52,3.52,0,0,1-3,1.6,3.43,3.43,0,0,1-2.27-.8A3.58,3.58,0,0,1,1284.83,872.52Z"/><path class="cls-4" d="M658.51,882.31v7.37h7.22a5.49,5.49,0,0,1,3.68,1,3.58,3.58,0,0,1,0,5.16,5.36,5.36,0,0,1-3.68,1H650.24a5.36,5.36,0,0,1-3.68-1,3.36,3.36,0,0,1-1.1-2.6,3.25,3.25,0,0,1,1.12-2.56,5.43,5.43,0,0,1,3.66-1h1.12v-28h-1.12a5.49,5.49,0,0,1-3.68-1,3.62,3.62,0,0,1-.08-5.12l.08-.08a5.49,5.49,0,0,1,3.68-1h16.47q7.26,0,11.5,4a13.08,13.08,0,0,1,2.8,15.58,13.24,13.24,0,0,1-3.61,4.13,19,19,0,0,1-5.16,3.07,19.36,19.36,0,0,1-7,1Zm0-7.15h6.63a11.77,11.77,0,0,0,7.41-2.11,6.23,6.23,0,0,0,2.74-5.08,5.66,5.66,0,0,0-2.21-4.39,9.5,9.5,0,0,0-6.34-1.89h-8.23Z"/><path class="cls-4" d="M710.39,851.58v38.1H719a5.49,5.49,0,0,1,3.68,1,3.36,3.36,0,0,1,1.1,2.6,3.29,3.29,0,0,1-1.1,2.56,5.36,5.36,0,0,1-3.68,1H694.65a5.36,5.36,0,0,1-3.68-1,3.36,3.36,0,0,1-1.1-2.6,3.29,3.29,0,0,1,1.1-2.56,5.49,5.49,0,0,1,3.68-1h8.58V858.73h-5.75a5.46,5.46,0,0,1-3.67-1,3.57,3.57,0,0,1-.13-5l.13-.13a5.49,5.49,0,0,1,3.68-1Z"/><path class="cls-4" d="M757.41,896.83v-1.68a23.14,23.14,0,0,1-5.93,2.15,27.27,27.27,0,0,1-5.9.71,13.93,13.93,0,0,1-9.35-3q-3.59-3-3.59-6.75,0-4.5,4.59-8.36t12.68-3.9a46.09,46.09,0,0,1,7.5.7V875a3.13,3.13,0,0,0-1.38-2.62q-1.38-1-5.25-1a35.79,35.79,0,0,0-8.23,1.26,13.24,13.24,0,0,1-2.93.45,3.27,3.27,0,0,1-2.43-1,3.66,3.66,0,0,1-1-2.63,3.19,3.19,0,0,1,.35-1.57,2.78,2.78,0,0,1,1-1.07,11.24,11.24,0,0,1,2.62-1,50.11,50.11,0,0,1,5.41-1.17,32.14,32.14,0,0,1,5-.43q6.66,0,10.34,2.88a9.41,9.41,0,0,1,3.68,7.86v14.73h1.22a5.51,5.51,0,0,1,3.69,1,3.32,3.32,0,0,1,1.09,2.6,3.28,3.28,0,0,1-1.09,2.56,5.46,5.46,0,0,1-3.69,1Zm0-12.81a42.16,42.16,0,0,0-7.92-.83,13.11,13.11,0,0,0-7.5,2.12c-1.3.91-2,1.83-2,2.76a1.9,1.9,0,0,0,.94,1.64,8.61,8.61,0,0,0,4.78,1.15,19.67,19.67,0,0,0,5.84-1,21.1,21.1,0,0,0,5.81-2.76Z"/><path class="cls-4" d="M791.14,896.58,778.76,872.3a4.09,4.09,0,0,1-2.65-1.19,3.58,3.58,0,0,1,.19-5,5.49,5.49,0,0,1,3.68-1h6.52a5.49,5.49,0,0,1,3.68,1,3.59,3.59,0,0,1,0,5.17,5.09,5.09,0,0,1-3.47,1l8.45,16.43,8.37-16.43a5,5,0,0,1-3.4-1,3.59,3.59,0,0,1,0-5.17,5.49,5.49,0,0,1,3.68-1h6.73a5.41,5.41,0,0,1,3.65,1,3.36,3.36,0,0,1,1.1,2.6,3.44,3.44,0,0,1-.94,2.43,4.13,4.13,0,0,1-2.8,1.13l-16.39,32.31a7.57,7.57,0,0,1,3.52.52,3.45,3.45,0,0,1,1.67,3.07,3.32,3.32,0,0,1-1.09,2.57,5.51,5.51,0,0,1-3.69,1H780a5.49,5.49,0,0,1-3.68-1,3.3,3.3,0,0,1-1.1-2.57,3.36,3.36,0,0,1,1.1-2.6,5.49,5.49,0,0,1,3.68-1h7.12Z"/><path class="cls-5" d="M2007.84,598.47,1918.15,408c12.26-19.35,19.51-43.32,19.51-69.28,0-64.2-44.33-116.24-99-116.24s-99,52-99,116.24c0,25.92,7.24,49.85,19.45,69.18l-89.73,190.56Z"/><rect class="cls-6" x="1822.86" y="512.25" width="37.64" height="96.43" rx="6.8"/><path class="cls-7" d="M1926.81,642.54h0c0-23.77-19.64-43.22-43.63-43.22h-75c-24,0-42.11,14.25-42.11,38l16.51,6Z"/><rect class="cls-7" x="1775.75" y="301.31" width="125.71" height="263.67" rx="19.81"/><rect class="cls-7" x="1868.56" y="913.86" width="23.58" height="106.03" rx="6.91"/><rect class="cls-7" x="1868.58" y="991.97" width="23.53" height="76.12" rx="4.3"/><rect class="cls-7" x="1811.07" y="913.86" width="23.58" height="106.03" rx="6.91"/><rect class="cls-7" x="1811.09" y="991.97" width="23.53" height="76.12" rx="4.3"/><polygon class="cls-8" points="1989.1 930.31 1887.35 746.24 1926.81 638.89 1764.55 633.55 1810.54 748.62 1710.11 930.31 1989.1 930.31"/><ellipse class="cls-9" cx="1860.36" cy="384.8" rx="11.14" ry="8.88"/><ellipse class="cls-9" cx="1816.84" cy="384.8" rx="11.14" ry="8.88"/><rect class="cls-7" x="1714.7" y="640.01" width="106.03" height="23.58" rx="6.91" transform="translate(445.28 1993.75) rotate(-65.66)"/><rect class="cls-7" x="1706.36" y="650.97" width="23.53" height="76.12" rx="6.77" transform="translate(842.44 2319.95) rotate(-83.62)"/><rect class="cls-7" x="1666.62" y="684.3" width="21.96" height="10.09" rx="2.66" transform="translate(-136.04 673.25) rotate(-21.83)"/><rect class="cls-7" x="1640.84" y="690.27" width="31" height="14.25" rx="2.66" transform="translate(-140.55 665.92) rotate(-21.83)"/><rect class="cls-6" x="1660.45" y="699" width="11.08" height="3.45" rx="1.01" transform="translate(-99.13 312.25) rotate(-10.4)"/><rect class="cls-7" x="1910.47" y="598.87" width="23.58" height="106.03" rx="6.91" transform="translate(-97.82 850.2) rotate(-24.34)"/><rect class="cls-7" x="1888.46" y="702.29" width="76.12" height="23.53" rx="6.77" transform="translate(405.26 2095.05) rotate(-62.57)"/><rect class="cls-7" x="1892.55" y="742.72" width="21.96" height="10.09" rx="2.66" transform="translate(-89.96 1204.47) rotate(-34.35)"/><rect class="cls-7" x="1869.52" y="753.83" width="31" height="14.25" rx="2.66" transform="translate(-100.63 1196.32) rotate(-34.35)"/><rect class="cls-6" x="1881.4" y="749.34" width="11.08" height="3.45" rx="1.01" transform="translate(-143.36 801.24) rotate(-23.12)"/><path class="cls-10" d="M1853.51,523.32v-2.15a13.86,13.86,0,1,0-27.71-.75q0,.38,0,.75v2.15Z"/><rect class="cls-11" x="1825.8" y="519.93" width="27.71" height="14.23" rx="3.87"/><polygon class="cls-5" points="1880.99 303.16 1810.33 227.55 1778.76 319.26 1880.99 303.16"/><path class="cls-12" d="M1837.94,1069.08a15.09,15.09,0,0,0-30.16-.46Z"/><path class="cls-12" d="M1895.42,1069.08a15.08,15.08,0,0,0-30.15-.46Z"/><circle class="cls-6" cx="1839.65" cy="438.87" r="6.35"/><polygon class="cls-6" points="1839.65 422.47 1833.47 437.31 1845.83 437.31 1839.65 422.47"/><path class="cls-7" d="M1775.83,389.93a12.7,12.7,0,0,0-1.85.14,12,12,0,0,0,2,23.89Z"/><path class="cls-6" d="M1775.85,395.16a6.78,6.78,0,1,0,.11,13.56Z"/><path class="cls-7" d="M1901.35,389.9a12.7,12.7,0,0,1,1.85.14,12,12,0,0,1-2,23.89Z"/><path class="cls-6" d="M1901.32,395.13a6.31,6.31,0,0,1,1.06.08,6.78,6.78,0,0,1-1.11,13.48Z"/><polygon class="cls-12" points="1908.44 407.82 1904.24 419.86 1912.84 419.79 1908.44 407.82"/><polygon class="cls-12" points="1772.18 409.86 1764.28 419.88 1772.43 422.61 1772.18 409.86"/><polygon class="cls-13" points="1581.71 842.26 1558.29 868.77 1591.7 876.2 1581.71 842.26"/><path class="cls-14" d="M1582.26,844.76c-.17,1-2.32.52-2.1-.47l6.31-28.4s1.61-.13,2.1.47S1582.43,843.74,1582.26,844.76Z"/><polygon class="cls-15" points="1603.55 848.52 1580.12 875.03 1613.54 882.46 1603.55 848.52"/><path class="cls-14" d="M1604.1,851c-.17,1-2.33.52-2.11-.47l6.31-28.4s1.62-.13,2.11.47S1604.27,850,1604.1,851Z"/><polygon class="cls-16" points="1618.31 852.17 1590.68 874.26 1622.33 887.32 1618.31 852.17"/><path class="cls-14" d="M1618.43,854.72c-.35,1-2.39.11-2-.82l11.09-26.9s1.62.15,2,.82S1618.77,853.75,1618.43,854.72Z"/><polygon class="cls-13" points="1558.41 818.46 1525.54 831.53 1551.99 853.25 1558.41 818.46"/><path class="cls-14" d="M1557.78,820.94c-.61.83-2.31-.59-1.67-1.37l18.46-22.49s1.5.62,1.67,1.37S1558.39,820.11,1557.78,820.94Z"/><polygon class="cls-15" points="1574.08 833.48 1541.2 846.55 1567.66 868.27 1574.08 833.48"/><path class="cls-14" d="M1573.44,836c-.61.83-2.31-.59-1.67-1.37l18.47-22.49s1.5.62,1.67,1.37S1574.05,835.13,1573.44,836Z"/><polygon class="cls-13" points="1610.75 855.6 1583.89 878.63 1615.97 890.59 1610.75 855.6"/><path class="cls-14" d="M1611,858.15c-.31,1-2.38.19-2-.76l10.16-27.26s1.62.1,2,.76S1611.26,857.16,1611,858.15Z"/><polygon class="cls-16" points="1561.73 829.76 1528.86 842.83 1555.31 864.55 1561.73 829.76"/><path class="cls-14" d="M1561.1,832.24c-.62.83-2.31-.59-1.67-1.37l18.46-22.49s1.5.62,1.67,1.37S1561.71,831.41,1561.1,832.24Z"/><polygon class="cls-17" points="1612.17 849.81 1581.11 866.74 1609.99 885.11 1612.17 849.81"/><path class="cls-14" d="M1611.84,852.34c-.51.9-2.36-.31-1.82-1.16l15.62-24.54s1.56.43,1.82,1.16S1612.35,851.44,1611.84,852.34Z"/><polygon class="cls-18" points="1595.54 839.5 1564.48 856.43 1593.36 874.81 1595.54 839.5"/><path class="cls-14" d="M1595.21,842c-.51.9-2.37-.31-1.82-1.16l15.61-24.5s1.56.42,1.82,1.15S1595.72,841.14,1595.21,842Z"/><polygon class="cls-17" points="1577.08 829.22 1541.74 830.82 1559.64 860 1577.08 829.22"/><path class="cls-14" d="M1575.67,831.35c-.85.59-2-1.31-1.13-1.84l24.81-15.21s1.21,1.07,1.12,1.84S1576.52,830.77,1575.67,831.35Z"/><polygon class="cls-18" points="1626.64 864.73 1604.13 892.02 1637.78 898.3 1626.64 864.73"/><path class="cls-14" d="M1627.27,867.2c-.13,1-2.31.6-2.12-.39l5.34-28.6s1.61-.19,2.12.39S1627.41,866.18,1627.27,867.2Z"/><polygon class="cls-12" points="1662.2 727.52 1551.47 812.52 1635.43 864.52 1662.2 727.52"/><polygon class="cls-19" points="1662.2 727.52 1597.76 841.21 1635.13 864.36 1662.2 727.52"/><rect class="cls-20" x="63.15" y="652.81" width="137.32" height="288.02" rx="19.81"/><rect class="cls-20" x="206.92" y="649.34" width="37.1" height="121.15" rx="9.95" transform="translate(-415.13 329.86) rotate(-41.7)"/><rect class="cls-14" x="63.15" y="882.26" width="37.1" height="121.15" rx="9.95"/><rect class="cls-14" x="63.15" y="946.3" width="37.1" height="121.15" rx="9.95"/><rect class="cls-14" x="162.91" y="882.26" width="37.1" height="121.15" rx="9.95"/><rect class="cls-14" x="162.91" y="946.3" width="37.1" height="121.15" rx="9.95"/><rect class="cls-20" x="-19.5" y="695.27" width="121.15" height="37.1" rx="9.95" transform="translate(-519.21 269.63) rotate(-48.3)"/><rect class="cls-20" x="-34.31" y="758.1" width="83.14" height="37.1" rx="9.95" transform="translate(-765.05 694.33) rotate(-83.38)"/><rect class="cls-20" x="240.19" y="712.9" width="83.14" height="37.1" rx="9.95" transform="translate(-268.88 173.59) rotate(-23.56)"/><rect class="cls-6" x="99.73" y="555.02" width="59.53" height="121.81" rx="15.97"/><ellipse class="cls-21" cx="129.55" cy="418.24" rx="112.55" ry="76.5"/><rect class="cls-7" x="52.26" y="396.58" width="149.69" height="234.53" rx="29.19"/><ellipse class="cls-9" cx="150.07" cy="466.1" rx="12.17" ry="9.7"/><ellipse class="cls-9" cx="102.52" cy="466.1" rx="12.17" ry="9.7"/><ellipse class="cls-21" cx="72.68" cy="391.64" rx="27.33" ry="21.79"/><ellipse class="cls-21" cx="120.23" cy="379.87" rx="45.04" ry="35.9"/><ellipse class="cls-21" cx="177.74" cy="396.45" rx="27.34" ry="21.79"/><ellipse class="cls-21" cx="205.07" cy="396.45" rx="20.42" ry="16.28"/><ellipse class="cls-21" cx="50" cy="382.46" rx="27.34" ry="21.79"/><ellipse class="cls-21" cx="55.6" cy="394.01" rx="33.52" ry="24.16"/><ellipse class="cls-21" cx="102.52" cy="357.86" rx="27.34" ry="21.79"/><ellipse class="cls-21" cx="184.65" cy="368.61" rx="27.34" ry="21.79"/><ellipse class="cls-21" cx="164.3" cy="357.86" rx="27.34" ry="21.79"/><ellipse class="cls-21" cx="75.19" cy="365.76" rx="27.34" ry="21.79"/><ellipse class="cls-21" cx="208.03" cy="391.64" rx="35.98" ry="28.67"/><path class="cls-14" d="M63.45,865.24a25.82,25.82,0,0,0-.3,3.73v42.4c0,16.93,16.62,30.78,36.92,30.78h63.48c20.31,0,36.92-13.85,36.92-30.78V869a25.82,25.82,0,0,0-.3-3.73Z"/><path class="cls-22" d="M135.45,585A22.16,22.16,0,0,1,150,590.06c10.33-5.71,16.59-15.62,15.21-26.23h0a24.34,24.34,0,0,0-4.56-11.15L96.1,558a22.67,22.67,0,0,0-1.58,11.65h0c1.45,11.16,11,20.17,23.44,23.74C121.25,588.39,127.84,585,135.45,585Z"/><path class="cls-23" d="M133.53,594.92h0a43.24,43.24,0,0,0,7.58-1.31,38.15,38.15,0,0,0,13.44-6.55A71.38,71.38,0,0,0,144.38,583,68.52,68.52,0,0,0,134,580.5c-11.18-1.39-22.25,7-25,9.17a41.8,41.8,0,0,0,16.72,5.21A42.45,42.45,0,0,0,133.53,594.92Z"/><path class="cls-24" d="M144.19,554.06l-7.68.51-5.86.66,2.23,17.46c.26,2,3.22,3.33,6.59,3l6.78-.57c3.37-.28,5.92-2.11,5.66-4.07l-2.29-17.45Z"/><rect class="cls-6" x="114.23" y="495.06" width="25.74" height="40.71" rx="5.02"/><rect class="cls-7" x="307.62" y="706.54" width="34.64" height="15.92" rx="2.66" transform="translate(-258.5 189.44) rotate(-23.56)"/><rect class="cls-7" x="333.08" y="688.29" width="48.91" height="22.48" rx="2.66" transform="translate(-249.81 201.22) rotate(-23.56)"/><rect class="cls-7" x="-15.82" y="807.08" width="34.64" height="15.92" rx="2.66" transform="translate(-792.18 629.69) rotate(-76.75)"/><rect class="cls-7" x="-31.84" y="838.55" width="48.91" height="22.48" rx="2.66" transform="translate(-832.86 647.82) rotate(-76.75)"/><path class="cls-10" d="M106.51,1069.12c-1.94-16.27-12.92-28.74-26.19-28.74S56,1053,54.12,1069.31Z"/><path class="cls-10" d="M207.66,1069.12c-1.94-16.27-12.93-28.74-26.19-28.74s-24.33,12.57-26.2,28.93Z"/><path class="cls-25" d="M123.53,686.91h1.19l3.62-8.79,3.62,8.79h1.18a29.85,29.85,0,0,0,29.77-29.76v-4.34H158.7c-4.67,14.7-11.15,21.16-28.62,23.64l-2.14.11c-13.54-.92-23.84-10.13-27.87-23.75l-6.31.54C93.76,669.72,107.16,686.91,123.53,686.91Z"/><polygon class="cls-26" points="120.19 865.24 142.04 865.24 200.17 865.24 200.01 872.01 142.5 872.01 120.19 872.01 63.15 872.01 63.45 865.24 120.19 865.24"/><path class="cls-27" d="M136.73,865.24s18,.77,23.08,10.31-2.05,4.51-2.05,4.51-16.92-8-20.1-8-.93-6.07-.93-6.07Z"/><rect class="cls-28" x="128.47" y="865.24" width="1.42" height="6.77"/><rect class="cls-28" x="135.96" y="865.24" width="1.42" height="6.77"/><rect class="cls-28" x="129.18" y="865.23" width="6.77" height="1.42"/><rect class="cls-28" x="129.18" y="870.59" width="6.77" height="1.42"/><path class="cls-7" d="M52.16,464.94a22.14,22.14,0,0,0-3.25.26,20.93,20.93,0,0,0,3.38,41.62Z"/><path class="cls-6" d="M52.19,474.07a11.64,11.64,0,0,0-1.86.13,11.81,11.81,0,0,0,1.93,23.49Z"/><path class="cls-7" d="M201.75,464.36a21.69,21.69,0,0,1,3.12.31c11,1.91,18.59,11.68,16.84,21.82-1.59,9.21-10.3,15.55-20.16,15.22Z"/><path class="cls-6" d="M201.71,472.5a11.78,11.78,0,0,1,1.78.16c6.24,1.08,10.5,6.6,9.51,12.33-.9,5.2-5.83,8.78-11.4,8.58Z"/><polygon class="cls-13" points="372.91 595.43 379.42 557.34 344.11 569.66 372.91 595.43"/><path class="cls-14" d="M371,593.43c-.42-1,1.87-1.82,2.23-.78l10.48,30s-1.43,1.05-2.23.78S371.39,594.47,371,593.43Z"/><polygon class="cls-15" points="349.04 602.17 355.54 564.08 320.24 576.41 349.04 602.17"/><path class="cls-14" d="M347.09,600.17c-.43-1,1.86-1.82,2.23-.77l10.47,30s-1.42,1.05-2.22.78S347.52,601.22,347.09,600.17Z"/><polygon class="cls-16" points="333.23 607.28 346.17 570.87 309.28 576.95 333.23 607.28"/><path class="cls-14" d="M331.65,605c-.24-1.11,2.15-1.48,2.33-.39L339.15,636s-1.59.79-2.33.38S331.89,606.08,331.65,605Z"/><polygon class="cls-13" points="408.24 604.13 431.25 573.09 394.19 568.13 408.24 604.13"/><path class="cls-14" d="M407.4,601.46c.09-1.12,2.49-.78,2.34.32l-4.21,31.5s-1.75.29-2.34-.31S407.31,602.59,407.4,601.46Z"/><polygon class="cls-15" points="385.05 599.19 408.06 568.15 371 563.19 385.05 599.19"/><path class="cls-14" d="M384.22,596.53c.09-1.13,2.48-.79,2.34.31l-4.22,31.5s-1.74.29-2.33-.31S384.13,597.65,384.22,596.53Z"/><polygon class="cls-13" points="338.28 599.74 349.97 562.91 313.3 570.25 338.28 599.74"/><path class="cls-14" d="M336.62,597.49c-.28-1.09,2.1-1.54,2.32-.46l6.24,31.16s-1.56.85-2.32.47S336.9,598.58,336.62,597.49Z"/><polygon class="cls-16" points="398.66 595.54 421.67 564.5 384.61 559.55 398.66 595.54"/><path class="cls-14" d="M397.82,592.88c.09-1.12,2.49-.78,2.34.31L396,624.69s-1.75.3-2.34-.31S397.73,594,397.82,592.88Z"/><polygon class="cls-17" points="340.29 605.94 359.39 572.36 322.01 571.9 340.29 605.94"/><path class="cls-14" d="M339.14,603.4c-.05-1.13,2.37-1.08,2.36,0l-.39,31.78s-1.7.5-2.36,0S339.18,604.53,339.14,603.4Z"/><polygon class="cls-18" points="361.65 605.94 380.76 572.36 343.38 571.9 361.65 605.94"/><path class="cls-14" d="M360.51,603.4c-.05-1.13,2.37-1.08,2.36,0l-.39,31.78s-1.7.5-2.36,0S360.55,604.53,360.51,603.4Z"/><polygon class="cls-17" points="384.71 604.88 416.61 583.07 383.21 566.26 384.71 604.88"/><path class="cls-14" d="M384.8,602.09c.45-1,2.6.07,2.1,1.06l-14.28,28.39s-1.74-.3-2.11-1.06S384.34,603.12,384.8,602.09Z"/><polygon class="cls-18" points="318.27 600.4 323.47 562.11 288.61 575.64 318.27 600.4"/><path class="cls-14" d="M316.26,598.47c-.47-1,1.8-1.88,2.2-.85L330,627.25s-1.39,1.1-2.2.85S316.72,599.5,316.26,598.47Z"/><polygon class="cls-12" points="364.17 748.27 418.11 605.65 310.23 605.65 364.17 748.27"/><polygon class="cls-19" points="364.17 748.27 358.61 605.64 310.6 605.64 364.17 748.27"/><rect class="cls-6" x="333.87" y="690.69" width="17.49" height="5.44" rx="1.33" transform="translate(-248.6 194.75) rotate(-23.56)"/><path class="cls-20" d="M1273.1,393.13h0a7.61,7.61,0,0,1,7.61,7.61v16.69a7.61,7.61,0,0,1-7.61,7.61h0a7.61,7.61,0,0,1-7.61-7.61V400.74A7.61,7.61,0,0,1,1273.1,393.13Z"/><path class="cls-20" d="M1279.22,395.81h0a2,2,0,0,1,1.07-2.7l8.52-3.72a2.05,2.05,0,0,1,2.71,1.06h0a2.06,2.06,0,0,1-1.07,2.71l-8.52,3.71A2.05,2.05,0,0,1,1279.22,395.81Z"/><path class="cls-14" d="M1268.56,420.58h0a2.06,2.06,0,0,1-.1,2.91l-6.8,6.34a2.06,2.06,0,0,1-2.91-.09h0a2.07,2.07,0,0,1,.1-2.91l6.81-6.34A2,2,0,0,1,1268.56,420.58Z"/><path class="cls-14" d="M1259.27,426.28h0a2.07,2.07,0,0,1,2.76.94l4.13,8.33a2,2,0,0,1-.92,2.75h0a2.06,2.06,0,0,1-2.76-.93l-4.13-8.33A2.05,2.05,0,0,1,1259.27,426.28Z"/><path class="cls-14" d="M1281.1,422h0a2.07,2.07,0,0,1-.94,2.76l-8.33,4.14a2.05,2.05,0,0,1-2.75-.93h0a2.06,2.06,0,0,1,.93-2.76l8.33-4.13A2.06,2.06,0,0,1,1281.1,422Z"/><path class="cls-14" d="M1270.18,425.74h0a2.05,2.05,0,0,1,2.48,1.53l2.25,9.5a2.06,2.06,0,0,1-1.53,2.48h0a2.05,2.05,0,0,1-2.47-1.53l-2.25-9.51A2.05,2.05,0,0,1,1270.18,425.74Z"/><path class="cls-20" d="M1258.51,404.94h0a2.06,2.06,0,0,1-.17-2.9l6.19-7a2.07,2.07,0,0,1,2.91-.17h0a2.06,2.06,0,0,1,.17,2.91l-6.19,6.94A2,2,0,0,1,1258.51,404.94Z"/><path class="cls-20" d="M1258.77,411.39h0a2.07,2.07,0,0,1-1.8-2.29l.59-5.05a2.06,2.06,0,0,1,2.28-1.81h0a2.06,2.06,0,0,1,1.8,2.28l-.59,5.06A2.06,2.06,0,0,1,1258.77,411.39Z"/><path class="cls-20" d="M1290,392h0a2,2,0,0,1-1.75-2.32l.69-5a2.06,2.06,0,0,1,2.32-1.76h0a2.06,2.06,0,0,1,1.76,2.32l-.7,5A2.05,2.05,0,0,1,1290,392Z"/><path class="cls-6" d="M1272.84,382.29h0a3.3,3.3,0,0,1,3.3,3.3v6.9a3.3,3.3,0,0,1-3.3,3.3h0a3.3,3.3,0,0,1-3.3-3.3v-6.9A3.3,3.3,0,0,1,1272.84,382.29Z"/><ellipse class="cls-21" cx="1272.84" cy="367.14" rx="12.47" ry="8.48"/><rect class="cls-7" x="1264.28" y="364.74" width="16.59" height="25.99" rx="8.29"/><ellipse class="cls-9" cx="1275.12" cy="372.44" rx="1.35" ry="1.08"/><ellipse class="cls-9" cx="1269.85" cy="372.44" rx="1.35" ry="1.08"/><ellipse class="cls-21" cx="1266.54" cy="364.19" rx="3.03" ry="2.41"/><ellipse class="cls-21" cx="1271.81" cy="362.89" rx="4.99" ry="3.98"/><ellipse class="cls-21" cx="1278.18" cy="364.72" rx="3.03" ry="2.41"/><ellipse class="cls-21" cx="1281.21" cy="364.72" rx="2.26" ry="1.8"/><ellipse class="cls-21" cx="1264.03" cy="363.17" rx="3.03" ry="2.41"/><ellipse class="cls-21" cx="1264.65" cy="364.45" rx="3.71" ry="2.68"/><ellipse class="cls-21" cx="1269.85" cy="360.45" rx="3.03" ry="2.41"/><ellipse class="cls-21" cx="1278.95" cy="361.64" rx="3.03" ry="2.41"/><ellipse class="cls-21" cx="1276.69" cy="360.45" rx="3.03" ry="2.41"/><ellipse class="cls-21" cx="1266.82" cy="361.32" rx="3.03" ry="2.41"/><ellipse class="cls-21" cx="1281.54" cy="364.19" rx="3.99" ry="3.18"/><path class="cls-14" d="M1265.52,416.67a2.81,2.81,0,0,0,0,.41v4.7c0,1.88,1.84,3.41,4.09,3.41h7c2.25,0,4.09-1.53,4.09-3.41v-4.7a2.81,2.81,0,0,0,0-.41Z"/><path class="cls-22" d="M1273.5,385.61a2.42,2.42,0,0,1,1.61.57,3,3,0,0,0,1.68-2.91h0a2.62,2.62,0,0,0-.5-1.23l-7.15.59a2.38,2.38,0,0,0-.18,1.29h0a3.4,3.4,0,0,0,2.6,2.63A2.29,2.29,0,0,1,1273.5,385.61Z"/><path class="cls-23" d="M1273.28,386.72h0a6.17,6.17,0,0,0,.84-.15,4.15,4.15,0,0,0,1.49-.73,7.89,7.89,0,0,0-2.27-.72,4.2,4.2,0,0,0-2.77,1,4.7,4.7,0,0,0,1.86.58A4.83,4.83,0,0,0,1273.28,386.72Z"/><path class="cls-24" d="M1274.47,382.19l-.86.05-.64.08.24,1.93c0,.22.36.37.73.34l.75-.06c.38,0,.66-.24.63-.45l-.25-1.94Z"/><path class="cls-6" d="M1272.58,375.65h0a1.43,1.43,0,0,1,1.43,1.43v1.65a1.43,1.43,0,0,1-1.43,1.43h0a1.43,1.43,0,0,1-1.43-1.43v-1.65A1.43,1.43,0,0,1,1272.58,375.65Z"/><path class="cls-7" d="M1291.27,384.27h0a.88.88,0,0,1-.75-1l.28-2.06a.89.89,0,0,1,1-.76h0a.9.9,0,0,1,.75,1l-.29,2.06A.87.87,0,0,1,1291.27,384.27Z"/><path class="cls-7" d="M1291.63,381.11h0a1.24,1.24,0,0,1-1.06-1.41l.4-2.89a1.25,1.25,0,0,1,1.4-1.07h0a1.26,1.26,0,0,1,1.07,1.41L1293,380A1.26,1.26,0,0,1,1291.63,381.11Z"/><path class="cls-6" d="M1292.43,376.49h0a.3.3,0,0,1-.26-.34l.19-1.32a.3.3,0,0,1,.34-.26h0a.3.3,0,0,1,.25.34l-.19,1.33A.29.29,0,0,1,1292.43,376.49Z"/><path class="cls-7" d="M1258.24,412.94h0a.88.88,0,0,1-.65-1.06l.47-2a.88.88,0,0,1,1.06-.66h0a.89.89,0,0,1,.66,1.06l-.48,2A.88.88,0,0,1,1258.24,412.94Z"/><path class="cls-7" d="M1257.06,417.57h0a1.25,1.25,0,0,1-.92-1.51l.66-2.84a1.25,1.25,0,0,1,1.5-.93h0a1.25,1.25,0,0,1,.93,1.5l-.67,2.85A1.26,1.26,0,0,1,1257.06,417.57Z"/><path class="cls-6" d="M1256.5,414.35h0a.29.29,0,0,1-.22-.36l.31-1.3a.3.3,0,0,1,.36-.22h0a.29.29,0,0,1,.22.36l-.3,1.3A.3.3,0,0,1,1256.5,414.35Z"/><path class="cls-10" d="M1268.28,438.4c-.83-1.62-2.44-2.5-3.82-2s-2,2.23-1.62,4Z"/><path class="cls-10" d="M1276.07,439.2c-.51-1.75-1.94-2.91-3.39-2.66s-2.43,1.82-2.34,3.64Z"/><path class="cls-25" d="M1272.18,396.91h.13l.4-1,.4,1h.13a3.32,3.32,0,0,0,3.3-3.3v-.48h-.47a3.24,3.24,0,0,1-3.17,2.62h-.24a3.43,3.43,0,0,1-3.08-2.63l-.7.06C1268.88,395,1270.36,396.91,1272.18,396.91Z"/><polygon class="cls-26" points="1271.81 416.67 1274.23 416.67 1280.67 416.67 1280.65 417.42 1274.28 417.42 1271.81 417.42 1265.49 417.42 1265.52 416.67 1271.81 416.67"/><path class="cls-27" d="M1273.64,416.67s2,.08,2.56,1.14-.23.5-.23.5a14.81,14.81,0,0,0-2.23-.89c-.35,0-.1-.67-.1-.67Z"/><rect class="cls-28" x="1272.72" y="416.67" width="0.16" height="0.75"/><rect class="cls-28" x="1273.55" y="416.67" width="0.16" height="0.75"/><rect class="cls-28" x="1272.8" y="416.66" width="0.75" height="0.16"/><rect class="cls-28" x="1272.8" y="417.26" width="0.75" height="0.16"/><path class="cls-7" d="M1264.27,372.31h-.36a2.32,2.32,0,0,0,.37,4.61Z"/><path class="cls-6" d="M1264.27,373.32h-.2a1.31,1.31,0,0,0,.21,2.6Z"/><path class="cls-7" d="M1280.84,372.25h.35a2.18,2.18,0,0,1,1.87,2.42,2.15,2.15,0,0,1-2.24,1.69Z"/><path class="cls-6" d="M1280.84,373.15h.2a1.22,1.22,0,0,1,1,1.36,1.19,1.19,0,0,1-1.26,1Z"/><path class="cls-5" d="M846.56,235.54l-13.33-28.32a19.22,19.22,0,0,0,2.9-10.3c0-9.54-6.59-17.28-14.72-17.28s-14.72,7.74-14.72,17.28a19.2,19.2,0,0,0,2.89,10.29l-13.34,28.33Z"/><path class="cls-6" d="M821.86,222.72h0a2.8,2.8,0,0,1,2.8,2.8v8.74a2.8,2.8,0,0,1-2.8,2.8h0a2.8,2.8,0,0,1-2.8-2.8v-8.74A2.8,2.8,0,0,1,821.86,222.72Z"/><path class="cls-7" d="M834.52,242.1h0a6.48,6.48,0,0,0-6.49-6.43H816.88c-3.57,0-6.26,2.12-6.26,5.65l2.45.89Z"/><path class="cls-7" d="M821.4,191.36h0a9.35,9.35,0,0,1,9.34,9.35v20.5a9.35,9.35,0,0,1-9.34,9.35h0a9.35,9.35,0,0,1-9.34-9.35v-20.5A9.35,9.35,0,0,1,821.4,191.36Z"/><ellipse class="cls-9" cx="824.64" cy="203.77" rx="1.66" ry="1.32"/><ellipse class="cls-9" cx="818.17" cy="203.77" rx="1.66" ry="1.32"/><path class="cls-10" d="M823.62,224.37v-.32a2.06,2.06,0,0,0-4.12,0v.32Z"/><path class="cls-11" d="M819.49,224.92h0a1.05,1.05,0,0,1,1.06-1.06h2a1.05,1.05,0,0,1,1.06,1.06h0a1.05,1.05,0,0,1-1.06,1.06h-2A1.05,1.05,0,0,1,819.49,224.92Z"/><polygon class="cls-5" points="827.7 191.63 817.2 180.39 812.5 194.03 827.7 191.63"/><circle class="cls-6" cx="821.56" cy="211.81" r="0.94"/><polygon class="cls-6" points="821.56 209.37 820.64 211.58 822.48 211.58 821.56 209.37"/><path class="cls-7" d="M812.07,204.53h-.28a1.79,1.79,0,0,0,.29,3.55Z"/><path class="cls-6" d="M812.07,205.31h-.16a1,1,0,0,0,.17,2Z"/><path class="cls-7" d="M830.73,204.53H831a1.79,1.79,0,0,1-.29,3.55Z"/><path class="cls-6" d="M830.73,205.31h.15a1,1,0,0,1,.84,1.14h0a1,1,0,0,1-1,.86Z"/><polygon class="cls-12" points="831.79 207.2 831.16 208.99 832.44 208.97 831.79 207.2"/><polygon class="cls-12" points="811.52 207.5 810.35 208.99 811.56 209.4 811.52 207.5"/><polygon class="cls-8" points="813.84 261.1 827.34 261.1 827.04 258.02 834.28 242.63 810.31 239.74 815.63 257.38 813.84 261.1"/><path class="cls-2" d="M463.3,204.83V330.9h18c3.6,0,6.16,1.1,7.7,3.29a14.76,14.76,0,0,1,2.29,8.6,14.54,14.54,0,0,1-2.29,8.49c-1.54,2.19-4.1,3.29-7.7,3.29H430.39q-5.4,0-7.7-3.29a17,17,0,0,1,0-17.09q2.3-3.29,7.7-3.29h17.95V228.49h-12c-3.55,0-6.11-1.09-7.66-3.29a16.89,16.89,0,0,1,0-17.08c1.53-2.2,4.1-3.29,7.7-3.29Z"/><rect class="cls-7" x="825.02" y="279.99" width="3.51" height="15.78" rx="1.56" transform="translate(-28.99 103.2) rotate(-7.02)"/><rect class="cls-7" x="808.09" y="282.83" width="15.78" height="3.51" rx="1.56" transform="translate(254.65 941.65) rotate(-68.72)"/><rect class="cls-7" x="813.83" y="287.72" width="3.5" height="11.33" rx="1.56" transform="translate(-37.42 447.1) rotate(-30)"/><polygon class="cls-8" points="829.32 258.42 815.11 258.42 801.45 283.13 842.98 283.13 829.32 258.42"/><path class="cls-2" d="M863,314H800.6a30.84,30.84,0,0,0,8.4,15.17q6,5.74,16.37,5.75,8.46,0,22.49-5.75c3.86-1.57,6.54-2.35,8-2.35q3,0,5.12,3.4a16.27,16.27,0,0,1,2.08,8.58,13.91,13.91,0,0,1-2.23,8q-3,4.35-14.47,8.28A68.06,68.06,0,0,1,824.29,359q-18.27,0-29.22-16.33t-11-40.16q0-25.38,11.84-41.29t27.29-15.91a30,30,0,0,1,17,5.17,38.65,38.65,0,0,1,11.55,11.16,82,82,0,0,1,8.83,21.49A80.88,80.88,0,0,1,863,303.8Zm-16.85-24.08q-3.49-10.34-9.14-15.44a20.11,20.11,0,0,0-26.8,0q-5.64,5.1-9.2,15.44Z"/><rect class="cls-7" x="802.97" y="241.72" width="15.76" height="3.51" rx="1.75" transform="translate(254.83 881.91) rotate(-65.66)"/><path class="cls-7" d="M817.24,254.53h0a1.75,1.75,0,0,1-2.39.65l-6.78-3.9a1.74,1.74,0,0,1-.64-2.39h0a1.74,1.74,0,0,1,2.38-.64l6.79,3.89A1.76,1.76,0,0,1,817.24,254.53Z"/><path class="cls-7" d="M819.57,254.17h0a.75.75,0,0,1-.77.73l-1.76-.05a.76.76,0,0,1-.73-.77h0a.76.76,0,0,1,.77-.73l1.76.05A.75.75,0,0,1,819.57,254.17Z"/><path class="cls-7" d="M823.62,254.35h0a1,1,0,0,1-1.09,1L820,255.3a1,1,0,0,1-1-1.09h0a1.06,1.06,0,0,1,1.09-1l2.49.08A1,1,0,0,1,823.62,254.35Z"/><path class="cls-6" d="M819.42,253.09h0a.27.27,0,0,1,.32-.19l1.1.26a.25.25,0,0,1,.19.3h0a.25.25,0,0,1-.31.19l-1.1-.25A.26.26,0,0,1,819.42,253.09Z"/><rect class="cls-7" x="837.13" y="233.43" width="3.53" height="15.84" rx="1.76" transform="translate(14.64 528.74) rotate(-35.27)"/><path class="cls-7" d="M840.05,248h0a1.75,1.75,0,0,1-.92,2.3l-7.19,3.06a1.75,1.75,0,0,1-2.3-.92h0a1.76,1.76,0,0,1,.92-2.3l7.2-3.06A1.74,1.74,0,0,1,840.05,248Z"/><path class="cls-7" d="M830.73,252.14h0a.75.75,0,0,1-.81.68l-1.77-.16a.76.76,0,0,1-.68-.81h0a.75.75,0,0,1,.82-.68l1.76.15A.76.76,0,0,1,830.73,252.14Z"/><path class="cls-7" d="M828,252h0a1,1,0,0,1-1.15,1l-2.48-.22a1.06,1.06,0,0,1-1-1.15h0a1.06,1.06,0,0,1,1.15-1l2.48.22A1.07,1.07,0,0,1,828,252Z"/><path class="cls-6" d="M827.67,251h0a.27.27,0,0,1-.33.17l-1.08-.32a.26.26,0,0,1-.18-.32h0a.26.26,0,0,1,.32-.17l1.09.32A.26.26,0,0,1,827.67,251Z"/><rect class="cls-1" x="536" y="767.29" width="854.34" height="199.59"/></svg>