<svg id="Layer_1" data-name="Layer 1" xmlns="http://www.w3.org/2000/svg" width="320" height="500" viewBox="0 0 320 500"><defs><style>.cls-1{fill:#ffd3c5;}.cls-2{fill:#dbb2a7;}.cls-3{fill:#669fdd;}.cls-4{fill:#89686b;}.cls-5{fill:#b71313;}.cls-6{fill:#bcb52a;}.cls-7{fill:#fc8900;}.cls-8{fill:#9863c6;}.cls-9{fill:#acce76;}.cls-10{fill:#97b262;}.cls-11{fill:#4c98d6;}.cls-12{fill:#b90f00;}.cls-13{fill:#2b7cb2;}.cls-14{fill:#634b4c;}.cls-15{fill:#ceb984;}.cls-16{fill:#72575a;}</style></defs><title>anton_bagfra_m_blomster</title><rect class="cls-1" x="211.9" y="347.53" width="23.4" height="10.78" rx="1.74" transform="translate(-131.3 573.37) rotate(-89.49)"/><rect class="cls-1" x="207.34" y="369.53" width="33.04" height="15.22" rx="2.45" transform="translate(-155.27 597.63) rotate(-89.49)"/><rect class="cls-2" x="210.22" y="367.65" width="11.81" height="3.68" rx="0.59" transform="translate(-155.27 582.32) rotate(-89.49)"/><path class="cls-2" d="M104.17,357.51l1.83.43a.92.92,0,0,1,.69,1.11l-2.33,9.85a.91.91,0,0,1-1.1.68l-1.84-.43a.92.92,0,0,1-.69-1.1l2.33-9.85A.93.93,0,0,1,104.17,357.51Z"/><polygon class="cls-3" points="41.49 434.52 22.91 453.47 47.55 460.22 41.49 434.52"/><path class="cls-4" d="M41.8,436.4c-.17.76-1.76.31-1.56-.42l5.89-21s1.21,0,1.55.43S42,435.65,41.8,436.4Z"/><polygon class="cls-5" points="57.53 439.98 38.95 458.94 63.59 465.69 57.53 439.98"/><path class="cls-4" d="M57.84,441.86c-.17.76-1.76.31-1.56-.42l5.89-21s1.21,0,1.55.42S58,441.11,57.84,441.86Z"/><polygon class="cls-6" points="68.4 443.24 46.87 458.74 69.95 469.63 68.4 443.24"/><path class="cls-4" d="M68.38,445.15c-.29.71-1.78,0-1.45-.69l9.39-19.69s1.2.17,1.46.69S68.68,444.43,68.38,445.15Z"/><polygon class="cls-3" points="25.07 415.91 -0.01 424.48 18.84 441.65 25.07 415.91"/><path class="cls-4" d="M24.5,417.73c-.49.6-1.7-.52-1.19-1.08L38,400.52s1.1.51,1.19,1.08S25,417.13,24.5,417.73Z"/><polygon class="cls-5" points="36.15 427.69 11.07 436.26 29.92 453.44 36.15 427.69"/><path class="cls-4" d="M35.57,429.51c-.49.6-1.7-.52-1.19-1.08L49.1,412.3s1.09.52,1.19,1.09S36.06,428.91,35.57,429.51Z"/><polygon class="cls-3" points="62.62 445.53 41.62 461.76 65.07 471.85 62.62 445.53"/><path class="cls-4" d="M62.66,447.44c-.27.72-1.78.06-1.48-.64l8.72-20s1.2.13,1.48.63S62.93,446.71,62.66,447.44Z"/><polygon class="cls-6" points="27.09 424.46 2 433.04 20.86 450.21 27.09 424.46"/><path class="cls-4" d="M26.51,426.29c-.49.6-1.7-.52-1.19-1.08L40,409.08s1.1.51,1.19,1.08S27,425.69,26.51,426.29Z"/><polygon class="cls-7" points="63.92 441.25 40.03 452.77 60.83 467.54 63.92 441.25"/><path class="cls-4" d="M63.57,443.13c-.42.65-1.76-.31-1.32-.93l12.68-17.77s1.15.38,1.31.93S64,442.48,63.57,443.13Z"/><polygon class="cls-8" points="51.93 432.96 28.04 444.48 48.84 459.25 51.93 432.96"/><path class="cls-4" d="M51.57,434.84c-.41.65-1.75-.31-1.31-.93l12.68-17.77s1.15.38,1.31.93S52,434.19,51.57,434.84Z"/><polygon class="cls-7" points="38.57 424.5 12.12 424.42 24.28 446.86 38.57 424.5"/><path class="cls-4" d="M37.43,426.15c-.66.41-1.43-1-.77-1.41l19.15-10.47s.86.85.76,1.42S38.09,425.75,37.43,426.15Z"/><polygon class="cls-8" points="74.1 452.92 56.17 472.49 81.04 478.39 74.1 452.92"/><path class="cls-4" d="M74.47,454.79c-.14.76-1.74.36-1.56-.37l5.16-21.17s1.21-.08,1.57.37S74.62,454,74.47,454.79Z"/><polygon class="cls-9" points="106.31 351.73 20.13 411.22 80.67 453.08 106.31 351.73"/><polygon class="cls-10" points="106.31 351.73 53.51 434.31 80.46 452.94 106.31 351.73"/><path class="cls-1" d="M99.8,333.16l5.37,1.27a2.69,2.69,0,0,1,2,3.23L103,355.48a2.69,2.69,0,0,1-3.24,2l-5.38-1.26a2.69,2.69,0,0,1-2-3.23l4.21-17.83A2.7,2.7,0,0,1,99.8,333.16Z"/><path class="cls-1" d="M93.71,351.91l7.6,1.79a3.8,3.8,0,0,1,2.83,4.56L98.2,383.42a3.81,3.81,0,0,1-4.57,2.83L86,384.46a3.8,3.8,0,0,1-2.83-4.56l5.94-25.16A3.81,3.81,0,0,1,93.71,351.91Z"/><rect class="cls-2" x="142.88" y="158.5" width="41" height="83" rx="6.57"/><path class="cls-11" d="M211,227.33l-12.38,3.52a6.28,6.28,0,0,0-4.32,7.73l19.32,67.61a6.29,6.29,0,0,0,7.75,4.31L233.71,307a6.28,6.28,0,0,0,4.32-7.73l-19.31-67.62A6.3,6.3,0,0,0,211,227.33Z"/><rect class="cls-4" x="118.88" y="373.5" width="25" height="83" rx="4.1"/><path class="cls-11" d="M166.27,226.63l-1.86.13c-7.18,0-15.18-.42-19.64-5.75a47,47,0,0,0-26.89,42.35V366.27a47.07,47.07,0,0,0,47,46.88h0a47.07,47.07,0,0,0,47-46.88V263.36a47.06,47.06,0,0,0-29.57-43.52C180,223.69,172.42,226.63,166.27,226.63Z"/><rect class="cls-4" x="118.88" y="416.5" width="25" height="83" rx="4.1"/><rect class="cls-4" x="186.88" y="373.5" width="25" height="83" rx="4.1"/><rect class="cls-4" x="186.88" y="416.5" width="25" height="83" rx="4.1"/><path class="cls-11" d="M126.85,228.1l11.94,4.8a6.28,6.28,0,0,1,3.48,8.15l-26.33,65.21a6.31,6.31,0,0,1-8.17,3.47l-11.94-4.8a6.28,6.28,0,0,1-3.48-8.15l26.34-65.21A6.3,6.3,0,0,1,126.85,228.1Z"/><path class="cls-11" d="M98.44,289.87l17.1,2a4.12,4.12,0,0,1,3.61,4.55l-5.62,48.32a4.12,4.12,0,0,1-4.55,3.6l-17.1-2a4.11,4.11,0,0,1-3.61-4.54l5.62-48.33A4.12,4.12,0,0,1,98.44,289.87Z"/><rect class="cls-11" x="196.97" y="309.06" width="56.16" height="25.12" rx="4.05" transform="translate(-98.56 543.8) rotate(-89.49)"/><rect class="cls-1" x="110.88" y="41.5" width="103" height="160" rx="16.53"/><path class="cls-4" d="M118.08,360.5a18.3,18.3,0,0,0-.2,2.57v29.22c0,11.67,11.37,21.21,25.27,21.21H186.6c13.9,0,25.28-9.54,25.28-21.21V363.07a16.92,16.92,0,0,0-.21-2.57Z"/><path class="cls-12" d="M148.91,499.42c-1.33-7.09-8.86-12.53-17.95-12.53s-16.67,5.48-18,12.61Z"/><path class="cls-12" d="M217.28,499.42c-1.33-7.09-8.86-12.53-17.95-12.53s-16.67,5.48-18,12.61Z"/><path class="cls-13" d="M159.89,229.5h6.59c11.22,0,20.4-3.4,20.4-7.56v-.31L183,219.87h0c-3.2,3.74-6.66,6.34-18.64,7l-1.47,0c-9.28-.23-14.71-2.36-17.47-5.82l-4.23,2.29C141.21,227.49,148.67,229.5,159.89,229.5Z"/><polygon class="cls-14" points="157.33 361.5 172.31 361.5 212.15 361.5 212.04 366.5 172.62 366.5 157.33 366.5 118.24 366.5 118.45 361.5 157.33 361.5"/><path class="cls-1" d="M110.79,87.93a14.16,14.16,0,0,0-2.23.18,14.3,14.3,0,0,0,2.32,28.45Z"/><path class="cls-1" d="M213,87.53a15.66,15.66,0,0,1,2.14.21c7.58,1.31,12.74,8,11.54,14.92-1.09,6.29-7.05,10.63-13.81,10.4Z"/><ellipse class="cls-15" cx="163.88" cy="56" rx="77" ry="52.5"/><ellipse class="cls-15" cx="124.38" cy="37.5" rx="18.5" ry="15"/><ellipse class="cls-15" cx="156.88" cy="30" rx="31" ry="24.5"/><ellipse class="cls-15" cx="196.38" cy="41.5" rx="18.5" ry="15"/><ellipse class="cls-15" cx="215.88" cy="41.5" rx="14" ry="11"/><ellipse class="cls-15" cx="109.38" cy="31.5" rx="18.5" ry="15"/><ellipse class="cls-15" cx="112.88" cy="39" rx="23" ry="16.5"/><ellipse class="cls-15" cx="145.38" cy="14.5" rx="18.5" ry="15"/><ellipse class="cls-15" cx="201.38" cy="22.5" rx="18.5" ry="15"/><ellipse class="cls-15" cx="187.38" cy="14.5" rx="18.5" ry="15"/><ellipse class="cls-15" cx="126.38" cy="20.5" rx="18.5" ry="15"/><ellipse class="cls-15" cx="217.38" cy="38" rx="24.5" ry="19.5"/><path class="cls-16" d="M171.6,413.38c-3.18.15-3.48-6.81-3.5-9,0-.12,0-.22,0-.34a2.62,2.62,0,0,0,0-.28v0h0c-.07-4.35-.73-24.85-.73-24.85.67,19-.18,33-3.72,34.45l-1,.12h9S175.35,413.21,171.6,413.38Z"/></svg>