<svg id="Layer_1" data-name="Layer 1" xmlns="http://www.w3.org/2000/svg" width="371.77" height="359" viewBox="0 0 371.77 359"><defs><style>.cls-1{fill:#be3894;}.cls-1,.cls-2{opacity:0.57;}.cls-2{fill:#43b5e8;}.cls-3{fill:#010101;}.cls-4{fill:#fff;}.cls-5{fill:#f1f2f2;}.cls-6{fill:#ad712a;}.cls-7{fill:#4d4f4d;}.cls-8{fill:none;stroke:#e6e7e8;stroke-miterlimit:10;}.cls-9{fill:#d1d3d4;}</style></defs><title>ani4</title><rect class="cls-1" x="41.92" y="29.43" width="323" height="323"/><rect class="cls-2" x="8.92" y="5.43" width="323" height="323"/><rect class="cls-3" x="25.92" y="15.43" width="323" height="323"/><rect class="cls-4" x="43.92" y="29.43" width="288" height="263"/><path class="cls-4" d="M118.4,318.42A30.62,30.62,0,0,1,130.66,311c1.16-.36,2.83-1.05,4-.4a6.12,6.12,0,0,1,2,2.8,22.23,22.23,0,0,1,2.1,7.45c.07.57,1.71-.09,1.93-.23a14.65,14.65,0,0,0,3.92-4.19c1-1.35,2.55-3.32,4.49-2.62,1.7.61,1.36,2.85,3.44,2.86s4-1.07,5.87-1.67a5.46,5.46,0,0,1,3.45-.27c1,.33,1.6,1.28,2.63,1.47,2,.38,3.66-1.48,5.52-1.94,2-.5,4.19.65,6.1-.38a2.94,2.94,0,0,0,.82-.67c.13-.16.23-.34.36-.51l.09-.12c.22-.3.26-.32.12-.08l-.08.16c.17.09.33.19.49.29l.51.29a8,8,0,0,0,1.62.64,15.77,15.77,0,0,0,6.77.05c1.95-.32,5-1.35,6.24.89.32.6,1.9-.05,2.16-.47,1.16-1.89,4.06.15,5.45.78a12.56,12.56,0,0,0,5.51,1,31.08,31.08,0,0,0,5.92-.86c.86-.19,2.52-.93,3.35-.49.66.36.93,1.29,1.64,1.69,3.14,1.78,6.73-.94,9.4-2.34A36.22,36.22,0,0,1,239,310.31c.93-.11,1.91-1.08.38-.9a41.52,41.52,0,0,0-12.81,3.7c-1.08.51-2.12,1.08-3.15,1.68s-2.34,1.53-3.7,1.2c-.93-.23-1.26-.78-1.85-1.48a2.25,2.25,0,0,0-2-.78c-2.14.12-4.25.95-6.37,1.27a12.58,12.58,0,0,1-7.67-1.05,9.06,9.06,0,0,0-4.87-1.32,4.94,4.94,0,0,0-3.89,2.09l2.16-.47c-.86-1.62-2.71-1.86-4.38-1.77-2.44.13-4.78,1-7.25.81a8.09,8.09,0,0,1-3.64-1.1,3.45,3.45,0,0,0-2.69-.58,3.29,3.29,0,0,0-2,1.34c-.08.11-.26.46-.37.5.18-.06-.25-.18-.25-.18-.68,0-1.35-.17-2-.15a12,12,0,0,0-3.15.49,12.34,12.34,0,0,0-1.54.56,9.83,9.83,0,0,1-1.73.95c-.61.09-1.09-.55-1.56-.83a4.42,4.42,0,0,0-1.29-.54,7.37,7.37,0,0,0-3,0,20.77,20.77,0,0,0-3.26.91c-.82.29-2.9,1.45-3.73.95s-.82-1.68-1.56-2.23a3.78,3.78,0,0,0-2.22-.63,8,8,0,0,0-5.38,2.08c-1.88,1.75-2.84,4.32-5.1,5.7l1.93-.23a20.78,20.78,0,0,0-3-9c-1.61-2.48-4.24-1.91-6.72-1.22a34.58,34.58,0,0,0-14.82,8.53c-.36.36.33.43.54.43a2.28,2.28,0,0,0,1.45-.54Z"/><path class="cls-4" d="M121.35,314.38A81.89,81.89,0,0,0,138,314.3c.32,0,1.19-.25,1.25-.66s-.66-.35-.9-.33a76.92,76.92,0,0,1-15.62,0,2.2,2.2,0,0,0-1.53.42c-.32.26-.3.56.16.61Z"/><circle class="cls-1" cx="140.23" cy="228.47" r="63"/><circle class="cls-2" cx="221.07" cy="138.84" r="53.65"/><path class="cls-5" d="M181.46,94.54s-19-5.93-31.11-2.75-23.73,26.91-23.44,32.41c0,0-4.26,30.6-8.61,48.76s4.06,22.28,4.06,22.28,1.23,6.59,11.14,16.35,13.09,15.34,13.09,15.34,7.24,12.44,21.85,1,46.16-44.42,46.08-50.35l.15-2.1,3-.07,12.16,11.36,1.3,1.3,2.44-5.52-14.74-12.28a187,187,0,0,1-8.61-25.75c-3.25-13.31-7.23-17.65-7.23-17.65S197.81,100.33,181.46,94.54Z"/><path class="cls-6" d="M190.36,146.41l-21.92-25,12.08-27.64s8,1.52,10.49,3.33l44.49-18.3-.43,6.51-16.71,37.76s-11.94-.43-15.41,3.77Z"/><path class="cls-6" d="M157.92,90.85a83.58,83.58,0,0,0-10.62,1.38L123.87,54.31s-14.58,38.14-10.05,51.51a101.61,101.61,0,0,0,14.32,12.23l.9.89s1.52-2.49-1.81-1.8l-1.5,15.15L159,121.16S158.2,94.43,157.92,90.85Z"/><path class="cls-6" d="M233.45,182.49l.08.07,0-.07Z"/><path class="cls-6" d="M293,240.24c-1-7.05-38.39-39.72-59.49-57.68l-33.84,69,20.55,4.63-6.51,14.47c5.35-1,67-.87,67-.87S294.47,250.08,293,240.24Z"/><circle class="cls-7" cx="183.25" cy="122.32" r="2.51"/><circle class="cls-7" cx="146.21" cy="115.47" r="2.51"/><path class="cls-8" d="M142,152s-2.32,4,10.63,2.6c0,0,4.52-.25,5.43-4.63,0,0-2.93,5,7.88,11,0,0,4.24,1.12,6.19-.15"/><path class="cls-6" d="M156.39,149.09c-1-1.78-5.23-5.93-3.94-7,1.05-.89,13-1,13.49.83.51,1.3-2.78,4.92-4.52,6.08C160.37,149.19,158.18,148.92,156.39,149.09Z"/><path class="cls-9" d="M149.12,168.46s20.55,7.33,25.69,4.51c0,0,8.17-9,10.27-16.38,0,0,4.41-8.53,7.09-11.93s10.71-16.06,10.71-16.06c6.18,3.37,9.7,26.49,13.18,36,0,0,1.93,6.37,3.59,6.94s-34.4,12.16-50.27,5.35S153.46,170.89,149.12,168.46Z"/><path class="cls-5" d="M157.77,258.09,138.55,245l-10.19,27.37a1.3,1.3,0,0,1-.5.63l-5.77,3.69a1,1,0,0,0-.37,1.34c1,2.05,3.66,7.12,4.37,7.14,1.45,0,25.16.89,25.16.89l6.52-24.81s22.9,15.77,27.33,14.88-3.9,4.26-3.9,4.26-1.77,4.25,3.9,7.79,23,0,23,0l5.59-17.57,6.51-14.47-20.55-4.63-3.07-4.44Z"/><polygon class="cls-5" points="253.5 267.4 239.32 278.63 243.22 284.66 267.86 284.66 281.32 268.88 253.5 267.4"/><path class="cls-9" d="M122.36,195.24s-7.6,20.83-6.14,23.44S138.55,245,138.55,245s2.39,3,3.29,3.9,43.91,25.64,44.56,25.64,8.5-24.23,9.17-24.65S201.05,253,202,252s31.56-69.48,31.56-69.48c1.31-.11-14.11-12.66-15.47-13.4-1.35,0-38.38,57.88-59.31,61.21-9.63,1.54-14.53-7-14.53-7Z"/></svg>
