<?xml version="1.0" encoding="UTF-8"?><svg id="a" xmlns="http://www.w3.org/2000/svg" viewBox="0 0 300 300"><defs><style>.b{fill:#643104;}</style></defs><path class="b" d="M12.0734,261.001c.0047,11.4525,5.07,19.8291,15.0571,24.8957,1.6817,.7896,3.4272,1.4357,5.2177,1.9313,.7961,.2455,1.5913,.492,2.3761,.76h235.9409c1.2107-.5156,2.45-.9935,3.651-1.4572,2.8187-.9749,5.5326-2.2299,8.1009-3.7463,5.3584-3.43,8.8875-8.914,10.4883-16.2981,.0995-.4058,.2486-.7979,.4438-1.1673l.034-.07V29.9066c-1.53-4.9046-2.9908-9.5344-6.3434-13.3223-4.7027-5.4616-11.4038-8.803-18.5958-9.2724-.6516-.0567-1.3268-.052-2.0379-.0468l-.6092,.0029-48.7819-.0024c-59.1295-.0023-118.2595,.0023-177.39,.0137-11.6914,.0038-20.0275,5.0784-24.7768,15.0832-1.6836,3.7653-2.5878,7.8324-2.6582,11.9563-.2569,8.9461-.21,18.0627-.1643,26.8794,.0189,3.5133,.0312,7.0267,.0368,10.54l-.0025,49.0683c-.0027,46.7321,.0017,93.4636,.0134,140.1945ZM20.264,35.826c.0009-12.937,7.3926-20.357,20.2786-20.3575,74.8298-.0019,149.6593-.0019,224.4885,0,12.8048,0,20.1492,7.3666,20.1492,20.2092,.0029,74.8293,.0029,149.6586,0,224.488,0,12.8483-7.3406,20.2182-20.14,20.2191-33.7191,.001-67.44,.0016-101.1629,.0019-41.1098,0-82.2183-.0006-123.3255-.0019-12.8927,0-20.2872-7.4171-20.2881-20.3485l-.001-144.1354,.0012-80.0749Z"/><g><path class="b" d="M69.5004,130.4977h-.0053c-1.7685,.0877-3.1835,1.4999-3.2748,3.2683,.0852,1.7705,1.4984,3.1883,3.2687,3.2793h.0081c1.8081-.0489,3.2342-1.5544,3.1852-3.3624-.047-1.7378-1.4437-3.1361-3.1814-3.1851h-.0004Z"/><path class="b" d="M76.5531,139.8338h-.0053c-1.7685,.0877-3.1835,1.4999-3.2748,3.2683,.0852,1.7705,1.4984,3.1883,3.2687,3.2793h.0081c1.8081-.0489,3.2342-1.5544,3.1852-3.3624-.047-1.7378-1.4437-3.1361-3.1814-3.1851h-.0004Z"/><path class="b" d="M83.6517,149.0178h-.0053c-1.7685,.0877-3.1835,1.4999-3.2748,3.2683,.0852,1.7705,1.4984,3.1883,3.2687,3.2793h.0081c1.8081-.0489,3.2342-1.5544,3.1852-3.3624-.047-1.7378-1.4437-3.1361-3.1814-3.1851h-.0004Z"/><path class="b" d="M91.319,158.5454h-.0053c-1.7685,.0877-3.1835,1.4999-3.2748,3.2683,.0852,1.7705,1.4984,3.1883,3.2687,3.2793h.0081c1.8081-.0489,3.2342-1.5544,3.1852-3.3624-.047-1.7378-1.4437-3.1361-3.1814-3.1851h-.0004Z"/><path class="b" d="M98.6106,167.4196h-.0053c-1.7685,.0877-3.1835,1.4999-3.2748,3.2683,.0852,1.7705,1.4984,3.1883,3.2687,3.2793h.0081c1.8081-.0489,3.2342-1.5544,3.1852-3.3624-.047-1.7378-1.4437-3.1361-3.1814-3.1851h-.0004Z"/><path class="b" d="M105.9083,176.8943h-.0053c-1.7685,.0877-3.1835,1.4999-3.2748,3.2683,.0852,1.7705,1.4984,3.1883,3.2687,3.2793h.0081c1.8081-.0489,3.2342-1.5544,3.1852-3.3624-.047-1.7378-1.4437-3.1361-3.1814-3.1851h-.0004Z"/><path class="b" d="M113.1884,186.1963h-.0053c-1.7685,.0877-3.1835,1.4999-3.2748,3.2683,.0852,1.7705,1.4984,3.1883,3.2687,3.2793h.0081c1.8081-.0489,3.2342-1.5544,3.1852-3.3624-.047-1.7378-1.4437-3.1361-3.1814-3.1851h-.0004Z"/><path class="b" d="M120.8282,195.4606h-.0053c-1.7685,.0877-3.1835,1.4999-3.2748,3.2683,.0852,1.7705,1.4984,3.1883,3.2687,3.2793h.0081c1.8081-.0489,3.2342-1.5544,3.1852-3.3624-.047-1.7378-1.4437-3.1361-3.1814-3.1851h-.0004Z"/><path class="b" d="M128.1179,204.7437h-.0053c-1.7685,.0877-3.1835,1.4999-3.2748,3.2683,.0852,1.7705,1.4984,3.1883,3.2687,3.2793h.0081c1.8081-.0489,3.2342-1.5544,3.1852-3.3624-.047-1.7378-1.4437-3.1361-3.1814-3.1851h-.0004Z"/><path class="b" d="M135.0086,214.3096h-.0053c-1.7685,.0877-3.1835,1.4999-3.2748,3.2683,.0852,1.7705,1.4984,3.1883,3.2687,3.2793h.0081c1.8081-.0489,3.2342-1.5544,3.1852-3.3624-.047-1.7378-1.4437-3.1361-3.1814-3.1851h-.0004Z"/><path class="b" d="M235.5772,133.3057l-.0012-.0052c-.4773-1.7051-2.1678-2.7722-3.9124-2.4696-1.7077,.4753-2.7773,2.1674-2.4739,3.9138l.0018,.0079c.4482,1.7523,2.2321,2.8096,3.9844,2.3614,1.6842-.4308,2.7384-2.1024,2.4014-3.8079v-.0004Z"/><path class="b" d="M228.0351,142.2511l-.0012-.0052c-.4773-1.7051-2.1678-2.7722-3.9124-2.4696-1.7077,.4753-2.7773,2.1674-2.4739,3.9138l.0018,.0079c.4482,1.7523,2.2321,2.8096,3.9844,2.3614,1.6842-.4308,2.7384-2.1024,2.4014-3.8079v-.0004Z"/><path class="b" d="M220.6515,151.2075l-.0012-.0052c-.4773-1.7051-2.1678-2.7722-3.9124-2.4696-1.7077,.4753-2.7773,2.1674-2.4739,3.9138l.0018,.0079c.4482,1.7523,2.2321,2.8096,3.9844,2.3614,1.6842-.4308,2.7384-2.1024,2.4014-3.8079v-.0004Z"/><path class="b" d="M213.0587,160.7947l-.0012-.0052c-.4773-1.7051-2.1678-2.7722-3.9124-2.4696-1.7077,.4753-2.7773,2.1674-2.4739,3.9138l.0018,.0079c.4482,1.7523,2.2321,2.8096,3.9844,2.3614,1.6842-.4308,2.7384-2.1024,2.4014-3.8079v-.0004Z"/><path class="b" d="M206.02,169.8707l-.0012-.0052c-.4773-1.7051-2.1678-2.7722-3.9124-2.4696-1.7077,.4753-2.7773,2.1674-2.4739,3.9138l.0018,.0079c.4482,1.7523,2.2321,2.8096,3.9844,2.3614,1.6842-.4308,2.7384-2.1024,2.4014-3.8079v-.0004Z"/><path class="b" d="M198.397,179.0858l-.0012-.0052c-.4773-1.7051-2.1678-2.7722-3.9124-2.4696-1.7077,.4753-2.7773,2.1674-2.4739,3.9138l.0018,.0079c.4482,1.7523,2.2321,2.8096,3.9844,2.3614,1.6842-.4308,2.7384-2.1024,2.4014-3.8079v-.0004Z"/><path class="b" d="M190.9385,188.2453l-.0012-.0052c-.4773-1.7051-2.1678-2.7722-3.9124-2.4696-1.7077,.4753-2.7773,2.1674-2.4739,3.9138l.0018,.0079c.4482,1.7523,2.2321,2.8096,3.9844,2.3614,1.6842-.4308,2.7384-2.1024,2.4014-3.8079v-.0004Z"/><path class="b" d="M183.5964,197.7473l-.0012-.0052c-.4773-1.7051-2.1678-2.7722-3.9124-2.4696-1.7077,.4753-2.7773,2.1674-2.4739,3.9138l.0018,.0079c.4482,1.7523,2.2321,2.8096,3.9844,2.3614,1.6842-.4308,2.7384-2.1024,2.4014-3.8079v-.0004Z"/><path class="b" d="M176.1586,206.912l-.0012-.0052c-.4773-1.7051-2.1678-2.7722-3.9124-2.4696-1.7077,.4753-2.7773,2.1674-2.4739,3.9138l.0018,.0079c.4482,1.7523,2.2321,2.8096,3.9844,2.3614,1.6842-.4308,2.7384-2.1024,2.4014-3.8079v-.0004Z"/><path class="b" d="M168.3565,215.7504l-.0012-.0052c-.4773-1.7051-2.1678-2.7722-3.9124-2.4696-1.7077,.4753-2.7773,2.1674-2.4739,3.9138l.0018,.0079c.4482,1.7523,2.2321,2.8096,3.9844,2.3614,1.6842-.4308,2.7384-2.1024,2.4014-3.8079v-.0004Z"/><path class="b" d="M254.3621,156.3243c-11.5069-31.2732-23.0174-62.545-34.5323-93.8152-1.8495-5.0226-3.6266-10.0762-5.6664-15.0209-.3943-.9559-1.871-2.0505-2.8223-2.027-.9541,.0237-1.9475,1.2962-2.7787,2.1608-.376,.391-.3975,1.1205-.5857,1.6946-7.6371,23.2969-15.2881,46.5892-22.8836,69.8996-.5223,1.603-1.1528,2.352-3.0253,2.3455-21.4474-.0744-42.8954-.0718-64.3429-.0031-1.8102,.0058-2.5463-.6057-3.086-2.2643-7.6661-23.5601-15.4026-47.0972-23.0944-70.649-.5582-1.709-1.0573-3.4491-3.2464-3.4307-2.0016,.0168-2.6463,1.6076-3.2369,3.2124-13.299,36.1332-26.6122,72.2612-39.9188,108.3916-1.3018,3.5345-1.1343,4.0641,1.8806,6.3049,33.511,24.9067,67.0273,49.8064,100.5186,74.7397,1.6567,1.2333,2.9914,1.2252,4.6436-.0079,17.665-13.1854,35.3638-26.3256,53.0552-39.4756,15.8879-11.8094,31.7866-23.6042,47.6489-35.4479,1.0872-.8118,1.9092-1.9786,2.7405-2.8593-.5513-1.6356-.8825-2.7018-1.2675-3.7481Zm-43.0701-98.2852l.6093-.0348c7.7283,20.974,15.4567,41.948,23.307,63.253h-44.6541c6.9604-21.2184,13.8491-42.2183,20.7378-63.2182Zm-123.4835-.0322c.204,.0099,.408,.0197,.6121,.0295,6.8883,20.998,13.7766,41.9961,20.7592,63.2817h-44.6898c7.8255-21.2466,15.572-42.2789,23.3186-63.3112Zm45.9239,162.6611c.142-.0319,.2796-.0646,.4168-.0975l-4.4336-3.3325h0c-5.4496-4.0484-10.7083-7.9553-15.9545-11.8517-20.319-15.0908-40.6234-30.2012-60.9861-45.2327-1.5984-1.1799-1.9123-2.0773-1.1806-3.9782,3.4081-8.8546,6.6649-17.769,9.8466-26.7079,.5674-1.5941,1.3118-2.0854,2.9473-2.0792,14.8636,.0564,29.7277,.0445,44.5915,.0145,1.4088-.0029,2.3151,.1516,2.8516,1.7979,10.2076,31.3278,20.4905,62.6311,30.7994,94.0665-4.1416,3.0124-5.4911-1.5384-8.8983-2.5991Zm16.4656,4.7547c-.218,.0259-.436,.0519-.6541,.0778-10.6876-32.5731-21.3752-65.1461-32.1288-97.9201h64.8826c-10.7539,32.7787-21.4268,65.3105-32.0997,97.8423Zm10.6163-1.3467c-1.1412-.5466-2.1249-1.0178-3.3359-1.5978,.163-.6038,.3236-1.3293,.5538-2.032,9.9114-30.2582,19.8422-60.51,29.7103-90.7823,.5349-1.6411,1.1869-2.3015,3.0266-2.2908,14.8681,.086,29.7371,.025,44.6053,.1068,.8801,.0048,2.29,.6499,2.5528,1.34,3.7415,9.8265,7.3275,19.7123,11.0219,29.7769-29.3717,21.8215-58.698,43.6094-88.1346,65.4792Z"/></g></svg>